<?xml version="1.0" standalone="no"?>
<!DOCTYPE svg PUBLIC "-//W3C//DTD SVG 20010904//EN"
 "http://www.w3.org/TR/2001/REC-SVG-20010904/DTD/svg10.dtd">
<svg version="1.0" xmlns="http://www.w3.org/2000/svg"
 width="300.000000pt" height="324.000000pt" viewBox="0 0 300.000000 324.000000"
 preserveAspectRatio="xMidYMid meet">
<metadata>
Created by potrace 1.10, written by Peter Selinger 2001-2011
</metadata>
<g transform="translate(0.000000,324.000000) scale(0.050000,-0.050000)"
fill="#000000" stroke="none">
<path d="M0 3240 l0 -3240 3000 0 3000 0 0 3240 0 3240 -3000 0 -3000 0 0
-3240z m1980 2761 c0 -11 -29 -35 -65 -54 -62 -32 -64 -32 -35 3 29 35 27 35
-32 4 -94 -49 -241 -223 -283 -336 -42 -111 -65 -106 -101 22 -19 64 -21 65
-22 16 -1 -29 7 -77 18 -106 11 -29 12 -47 2 -41 -34 21 -82 149 -83 224 -2
70 -4 73 -24 32 -20 -43 4 -171 52 -285 11 -25 -9 -30 -122 -31 -74 0 -156
-12 -182 -26 -65 -36 -45 -46 44 -21 88 24 170 15 103 -12 -22 -9 -71 -30
-110 -47 l-70 -30 80 -14 c44 -7 62 -15 40 -17 -22 -2 -62 -17 -90 -33 -50
-30 -50 -30 20 -18 l70 13 -90 -59 c-49 -32 -107 -78 -128 -102 -47 -53 -72
-39 -73 43 0 54 -3 59 -21 28 -19 -33 -13 -136 15 -244 23 -86 -49 39 -80 141
-17 54 -31 80 -32 57 0 -23 12 -86 29 -140 48 -158 30 -152 -30 11 -28 77 -33
117 -19 154 22 57 58 45 61 -19 1 -35 6 -30 25 21 31 86 62 90 69 10 8 -80 21
-81 94 -5 59 62 56 75 -11 39 -54 -28 -51 10 3 48 23 17 37 39 30 50 -7 11 7
34 32 52 50 35 34 42 -24 11 -51 -27 -68 7 -24 47 59 53 177 93 275 93 81 0
91 5 80 35 -39 101 -54 218 -33 270 32 84 62 66 63 -40 0 -74 5 -87 21 -60 31
53 52 42 67 -35 17 -92 33 -88 78 19 75 183 413 454 413 332z m660 -58 c0 -9
-19 -34 -42 -55 -77 -70 -94 -122 -22 -71 87 62 166 53 101 -12 -12 -12 30 -1
95 25 158 63 276 85 264 48 -5 -15 -30 -32 -55 -38 -25 -6 25 -12 112 -13 212
-4 537 -125 344 -128 l-47 0 50 -28 c46 -26 55 -24 103 23 56 53 120 48 76 -6
-31 -36 -20 -35 59 4 79 39 202 57 271 40 69 -17 65 -52 -6 -52 -73 0 -184
-37 -223 -74 -26 -25 -23 -27 29 -14 126 31 331 11 331 -32 0 -11 -38 -21 -85
-23 -53 -1 -66 -6 -35 -11 80 -14 135 -105 65 -107 -19 -1 12 -18 68 -37 137
-47 196 -87 265 -183 59 -81 82 -74 82 23 0 50 34 49 50 -2 7 -22 22 -40 34
-40 19 0 13 -67 -18 -197 -10 -43 -7 -45 30 -25 52 27 204 29 204 2 0 -11 -14
-20 -32 -20 -65 0 -178 -66 -137 -80 32 -11 29 -16 -19 -28 -113 -28 -75 36
58 98 47 22 51 29 20 29 -22 0 -66 -13 -98 -29 -71 -37 -79 -31 -53 39 29 74
28 153 0 111 -15 -22 -17 -8 -9 50 l12 80 -38 -67 -37 -68 -54 92 c-80 136
-197 197 -401 210 l-162 10 80 27 80 26 -89 -11 c-116 -14 -92 9 43 42 l106
26 -106 1 c-59 1 -132 -11 -165 -29 -81 -42 -75 -2 8 49 45 28 104 43 175 44
97 1 102 3 48 20 -57 17 -212 0 -297 -34 -33 -12 -35 -9 -15 29 27 51 81 81
202 115 90 24 90 24 20 25 -85 1 -209 -41 -261 -88 -49 -44 -70 -27 -39 31 35
66 8 71 -32 7 -20 -31 -38 -60 -40 -64 -3 -3 -32 14 -65 38 -47 35 -101 48
-237 59 l-176 14 210 4 c246 4 237 37 -16 58 -125 10 -143 15 -94 27 37 10 10
12 -71 6 -73 -5 -178 -21 -235 -36 -56 -15 -98 -19 -92 -10 20 32 -27 17 -100
-33 -79 -54 -77 -20 6 78 41 50 4 30 -103 -53 l-75 -59 21 57 c12 31 45 82 74
112 84 88 25 64 -72 -30 l-89 -85 44 75 c54 89 39 97 -35 19 -52 -55 -55 -56
-153 -32 l-100 25 96 -11 c86 -10 103 -5 154 44 36 35 72 52 95 45 21 -5 55 3
75 18 43 31 70 35 70 10z m-595 -40 c-3 -13 20 -23 50 -24 51 0 52 -2 19 -28
-36 -27 -36 -28 0 -37 26 -7 23 -10 -14 -12 -27 -2 -88 -20 -135 -41 -112 -51
-108 -35 9 39 52 33 88 60 82 60 -24 0 -186 -78 -256 -123 l-70 -44 50 55 c28
31 91 77 140 103 100 52 60 66 -54 19 -79 -33 -92 -32 -68 7 9 14 54 29 102
34 47 4 91 13 97 19 17 18 53 -3 48 -27z m931 -1003 c39 -49 98 -122 132 -161
34 -39 7 -15 -61 53 -124 125 -212 255 -236 348 -6 28 12 5 41 -50 29 -55 85
-140 124 -190z m-691 104 c-7 -103 -2 -152 23 -200 18 -35 29 -64 23 -64 -51
0 -90 238 -58 355 19 74 22 53 12 -91z m974 -144 c26 -39 66 -90 88 -115 22
-25 35 -49 29 -55 -32 -33 -232 308 -234 400 0 22 15 -5 34 -60 19 -56 56
-132 83 -170z m99 -12 c55 -83 56 -89 12 -38 -59 67 -150 244 -149 290 1 17
17 -11 37 -62 20 -50 65 -136 100 -190z m-1153 -58 c33 -62 110 -140 194 -197
28 -18 40 -33 27 -33 -125 0 -286 240 -283 420 l3 130 13 -130 c8 -71 28 -157
46 -190z m147 195 c1 -115 28 -194 109 -325 43 -70 43 -70 0 -20 -101 119
-160 300 -133 409 18 74 22 65 24 -64z m-1595 -45 c0 -18 -6 -15 -17 10 -15
34 -17 32 -18 -20 -1 -33 20 -107 47 -165 53 -113 36 -136 -44 -60 -44 41 -46
41 -35 5 7 -22 -2 -14 -20 17 -61 105 -53 38 10 -88 45 -88 57 -129 40 -139
-17 -10 -15 -33 7 -85 16 -40 24 -77 18 -84 -7 -6 11 -36 39 -66 104 -112 127
-231 56 -295 -46 -42 -100 -13 -100 54 0 24 -9 33 -23 24 -16 -10 -19 3 -12
44 10 53 9 55 -17 19 -24 -33 -39 -123 -30 -178 2 -9 -16 -10 -40 -2 -31 9
-39 6 -28 -11 12 -19 5 -19 -29 0 -25 13 -49 18 -56 12 -6 -6 4 -17 22 -24 18
-7 33 -22 33 -33 0 -12 -16 -6 -37 12 -20 18 -47 33 -60 33 -12 0 -23 9 -23
20 0 18 50 27 145 27 22 0 41 20 48 51 41 170 115 212 121 69 5 -112 28 -142
73 -97 54 54 40 138 -37 230 -38 46 -71 90 -72 97 -1 7 -5 36 -10 63 -5 28
-12 88 -15 134 -4 46 -21 105 -37 130 -71 111 -91 279 -22 184 15 -21 33 -35
39 -31 7 3 29 -19 49 -50 46 -69 47 -58 8 53 -32 90 -40 223 -15 248 15 15 40
-51 42 -108z m2407 -135 c12 -14 15 -25 8 -25 -17 0 -132 182 -132 209 0 12
24 -19 52 -69 28 -49 61 -101 72 -115z m1516 84 c0 -6 -24 -33 -53 -60 -57
-53 -39 -68 24 -20 50 38 69 38 69 3 0 -16 -25 -47 -55 -70 -54 -40 -54 -41
-9 -41 72 -1 184 -56 184 -90 0 -17 8 -31 18 -31 27 0 142 -100 142 -124 0
-12 -37 -15 -100 -6 -122 17 -125 7 -15 -50 158 -81 314 -287 274 -362 -28
-52 -42 -48 -28 7 6 25 2 68 -9 95 -19 48 -20 47 -22 -20 -3 -69 -3 -68 -28
26 -40 146 -154 245 -332 285 l-70 16 80 17 c44 10 109 13 145 6 173 -32 -7
96 -198 140 l-127 29 116 -6 c151 -8 119 30 -36 43 l-112 9 61 37 c79 48 77
60 -4 37 -100 -29 -110 -22 -45 31 33 27 61 59 63 70 1 11 3 25 5 30 3 14 62
13 62 -1z m-3092 -126 c23 -25 137 -95 254 -155 117 -60 229 -128 250 -152 27
-30 10 -24 -57 21 -52 36 -170 99 -263 142 -160 74 -274 179 -271 251 0 11 10
2 22 -20 13 -22 41 -61 65 -87z m2474 -227 c26 -90 60 -157 106 -205 37 -39
60 -71 52 -71 -60 0 -158 166 -198 335 -43 184 -54 271 -18 145 11 -38 37
-130 58 -204z m-2572 204 c6 -10 101 -65 210 -121 174 -90 340 -218 340 -263
0 -9 -31 18 -69 60 -40 45 -148 117 -260 175 -198 103 -298 168 -257 169 13 0
29 -9 36 -20z m2699 -291 c19 -29 30 -57 25 -62 -25 -25 -155 256 -153 331 1
17 22 -24 47 -92 26 -69 62 -148 81 -177z m249 71 c-1 -60 -7 -126 -15 -145
-7 -19 -13 35 -13 120 0 85 -7 178 -15 205 -11 38 -8 35 14 -10 16 -33 29
-109 29 -170z m-2668 -25 c11 -11 -34 9 -100 46 -158 87 -270 157 -270 168 0
13 345 -187 370 -214z m2478 88 c-10 -14 -111 65 -132 105 -16 29 1 21 57 -28
44 -38 78 -73 75 -77z m-1441 -174 c31 -18 94 -39 140 -48 72 -15 75 -17 22
-19 -77 -3 -247 81 -311 152 l-48 55 70 -55 c39 -30 95 -68 127 -85z m864 -12
c-8 -62 -5 -97 8 -97 12 0 21 41 21 90 0 107 33 119 51 20 8 -39 21 -75 30
-81 9 -5 8 19 -2 54 -48 168 91 5 150 -175 l32 -98 -10 90 -9 90 53 -110 c47
-98 54 -143 67 -430 17 -367 38 -520 58 -420 l12 60 44 -70 c62 -98 153 -600
185 -1030 1 -11 10 -2 19 20 14 33 17 34 19 6 0 -18 9 -38 18 -44 10 -6 11 27
2 72 -28 153 49 229 92 93 12 -37 14 -37 38 -5 70 96 98 -100 33 -228 -59
-116 -147 -196 -207 -186 -8 1 -20 -23 -26 -53 -7 -30 -20 -73 -29 -95 -10
-22 -37 -112 -60 -200 -87 -326 -327 -678 -422 -618 -10 5 -18 -6 -19 -26 0
-24 -10 -15 -27 24 l-26 60 -26 -90 c-41 -139 -59 -138 -27 1 16 68 25 128 20
133 -5 5 -25 -62 -44 -148 -39 -170 -79 -248 -61 -116 11 75 10 74 -17 -18
-15 -53 -55 -125 -87 -160 -32 -34 -80 -88 -106 -119 -72 -85 -150 -117 -295
-120 l-131 -3 -26 80 -26 80 8 -85 8 -85 -113 1 c-139 2 -179 17 -217 80 -16
27 -24 33 -18 14 20 -65 -30 -36 -59 35 -31 73 -55 96 -37 35 8 -30 6 -29 -16
3 -14 21 -132 147 -261 280 -129 133 -235 249 -235 258 0 9 -8 11 -18 5 -10
-6 -34 34 -52 90 -37 111 -61 127 -30 20 30 -104 -5 -51 -42 65 -19 57 -35 89
-36 70 -1 -18 7 -58 19 -88 18 -47 17 -51 -10 -29 -17 14 -31 41 -31 58 0 18
-18 87 -40 153 -38 115 -39 108 -11 -50 20 -110 -18 -29 -58 125 -20 74 -43
135 -52 135 -9 0 -22 29 -30 65 -7 36 -19 74 -25 84 -7 11 -10 52 -7 90 3 39
-9 130 -26 201 -38 162 -38 323 0 530 16 88 40 223 53 300 14 77 30 145 38
150 7 6 13 37 13 70 0 33 5 78 11 100 6 22 12 57 12 77 2 31 7 33 31 14 25
-21 27 -13 17 50 -10 59 -7 72 14 59 20 -12 23 -7 13 19 -18 47 62 177 100
163 19 -8 27 0 23 23 -3 20 5 33 19 30 14 -3 24 2 23 10 -7 40 6 45 46 16 25
-17 59 -31 75 -30 17 0 6 14 -25 31 -73 40 -42 84 51 74 52 -5 57 -3 25 12
-51 23 6 53 70 36 22 -6 35 -2 29 8 -6 10 0 19 15 21 28 3 60 10 76 16 47 18
110 18 133 -1 21 -18 27 -16 27 10 0 45 32 40 71 -13 l33 -45 -13 45 c-8 25
-5 45 5 45 11 0 29 -40 42 -89 12 -49 30 -94 40 -100 10 -6 4 35 -12 91 -16
55 -24 106 -18 113 24 23 59 -34 59 -95 0 -34 6 -51 14 -39 7 12 21 21 31 20
10 -2 25 17 33 43 8 26 10 2 5 -54 -8 -83 -6 -92 12 -50 11 28 18 84 14 125
-4 44 2 78 17 83 39 15 42 -145 4 -256 -34 -101 -34 -102 4 -52 21 28 60 73
87 100 67 70 92 126 92 208 0 38 9 75 20 82 36 22 21 -118 -21 -197 -48 -89
-41 -119 10 -42 19 29 41 98 50 154 15 97 37 128 124 176 25 14 19 -11 -25
-102 -70 -145 -76 -186 -7 -54 59 112 82 126 39 22 -17 -40 -27 -77 -22 -82
12 -12 63 92 80 162 16 67 69 153 94 153 29 0 20 -97 -14 -156 l-32 -54 42 47
c27 30 42 74 42 121 0 68 28 122 63 122 8 0 6 -29 -4 -64 -10 -35 -15 -67 -10
-72 5 -4 18 27 30 69 29 106 60 153 61 91 0 -26 -9 -64 -21 -85 -11 -22 -15
-39 -9 -39 7 0 25 29 42 65 l30 65 -10 -78 c-13 -98 26 -52 68 78 34 107 36
110 73 96 25 -10 29 -31 18 -109z m-1156 -89 c63 -26 102 -47 85 -48 -42 0
-272 111 -290 140 -8 13 9 9 37 -10 29 -19 104 -56 168 -82z m2705 -179 c0
-15 12 -23 27 -17 36 13 55 -61 40 -155 -11 -69 -8 -74 57 -95 76 -25 212
-153 188 -176 -8 -9 -51 6 -95 31 l-81 46 52 -76 c90 -132 70 -198 -26 -87
-87 101 -111 100 -82 -1 25 -86 26 -269 2 -353 -13 -45 -12 -66 5 -72 13 -4 4
-18 -20 -30 -43 -23 -43 -23 -15 81 35 134 35 284 0 402 -34 112 -17 116 88
21 44 -40 80 -66 80 -57 0 32 -107 154 -167 191 -98 59 -13 45 115 -19 62 -32
110 -48 106 -35 -11 34 -137 113 -199 126 -55 11 -58 30 -24 141 4 14 -1 25
-12 25 -10 0 -19 -7 -19 -16 0 -9 -11 -32 -25 -50 -21 -29 -25 -14 -27 95 -1
71 6 125 15 119 9 -6 17 -23 17 -39z m-2288 -78 c15 -38 -26 -161 -63 -192
-24 -20 -29 -15 -29 30 0 30 9 48 20 41 12 -7 20 20 20 69 0 79 30 109 52 52z
m-2336 -229 c6 -19 -4 -22 -36 -12 -35 11 -41 8 -29 -13 9 -15 -5 -9 -30 13
l-47 40 21 -40 c12 -22 40 -57 63 -78 74 -67 58 -197 -38 -306 -77 -88 -113
-184 -95 -259 7 -32 12 -30 30 14 36 88 78 109 78 39 0 -57 -31 -88 -35 -35
-1 14 -15 -6 -31 -44 -23 -53 -34 -62 -48 -40 -51 80 -6 244 98 363 87 98 88
205 3 286 -83 80 -79 115 14 106 40 -4 77 -19 82 -34z m4163 -494 c1 10 19 2
41 -18 21 -19 35 -42 29 -51 -5 -9 9 -22 32 -29 23 -8 38 -18 32 -23 -18 -18
-127 51 -160 101 -41 63 -44 94 -4 41 17 -22 30 -31 30 -21z m-4143 -323 c36
-64 42 -56 29 40 l-11 85 53 -48 53 -49 0 54 c0 52 44 74 69 35 6 -10 13 -133
16 -273 l5 -255 -80 -24 -80 -24 78 -16 c58 -12 70 -20 46 -33 -30 -16 -154
36 -154 66 0 7 40 19 90 26 l90 13 -13 244 c-7 134 -21 253 -31 264 -13 13
-18 2 -16 -30 7 -82 2 -88 -40 -50 -57 51 -73 22 -34 -59 18 -38 25 -74 16
-80 -40 -24 -142 154 -142 248 0 34 -9 61 -21 61 -13 0 -11 17 5 45 24 41 27
35 36 -75 6 -66 22 -140 36 -165z m4784 249 c0 -34 -51 -108 -134 -196 l-68
-71 51 -99 c55 -107 74 -229 38 -242 -16 -5 -22 23 -20 89 2 79 -8 112 -52
171 l-56 72 91 91 c50 49 88 97 86 106 -2 8 3 35 11 60 17 48 53 62 53 19z
m-735 -607 c61 -68 84 -103 55 -85 -102 65 -283 350 -329 518 -8 28 27 -32 77
-133 52 -104 137 -233 197 -300z m-45 248 c12 -19 16 -35 10 -35 -16 0 -130
184 -130 209 1 12 22 -15 49 -59 27 -44 59 -96 71 -115z m39 -178 l65 -87 -70
75 c-65 71 -195 290 -194 328 1 9 31 -38 67 -106 37 -68 96 -162 132 -210z
m561 118 c41 -67 60 -157 20 -95 -15 23 -19 14 -20 -35 0 -36 -9 -81 -20 -100
-11 -19 -29 -60 -39 -90 -14 -38 -29 -51 -52 -42 -21 8 -35 -1 -42 -29 -6 -22
-28 -45 -49 -50 -26 -7 -38 -28 -39 -67 0 -31 -13 -79 -29 -107 -16 -27 -29
-77 -30 -110 -1 -74 -25 -115 -62 -107 -36 8 -181 -101 -167 -125 6 -10 -2
-18 -18 -18 -16 0 -47 28 -69 63 -45 72 -80 25 -55 -74 9 -38 4 -49 -22 -49
-29 0 -27 -8 12 -49 94 -100 -28 -97 -144 4 -39 35 -32 47 -85 -155 -59 -225
-158 -387 -328 -537 -84 -73 -260 -242 -392 -376 -282 -286 -284 -287 -637
-287 -323 0 -382 24 -548 217 -62 73 -245 264 -406 423 -314 311 -371 396
-437 645 -18 69 -48 147 -67 174 l-34 49 -47 -44 c-46 -44 -128 -62 -104 -24
7 12 21 15 31 9 10 -6 40 12 66 39 l47 51 43 -46 c24 -25 57 -99 73 -164 58
-226 161 -401 327 -557 221 -208 315 -303 490 -498 212 -237 249 -254 557
-254 363 0 360 -1 676 318 148 151 321 316 384 368 135 112 228 281 296 540
l45 171 81 -59 c100 -73 128 -74 78 -3 -73 104 -97 161 -50 120 53 -47 66 -44
66 14 0 26 10 74 22 105 l21 56 39 -75 c48 -92 52 -93 42 -5 -10 83 9 170 36
170 11 0 19 -38 17 -85 l-2 -85 -15 70 c-15 69 -15 69 -17 10 -5 -135 52 -129
95 10 l22 70 -9 -75 c-11 -97 2 -95 48 10 l38 85 2 -70 c2 -58 6 -64 23 -34
11 19 18 56 15 82 -4 25 6 62 21 80 34 40 69 212 65 320 -3 94 10 87 35 -19
17 -73 18 -74 20 -19 1 33 -7 92 -17 130 -18 64 -17 67 10 31 16 -21 29 -55
29 -75 0 -20 10 -36 21 -36 15 0 18 39 10 115 -8 79 -5 102 7 75 11 -22 21
-85 23 -140 l3 -100 22 67 c14 47 15 98 1 166 -23 109 6 104 35 -6 16 -62 17
-60 10 23 -4 50 -14 106 -22 125 -24 58 8 39 50 -30z m-4300 -355 c0 -11 -16
-20 -35 -20 -30 -1 -31 -3 -5 -20 25 -16 23 -19 -10 -20 -59 -1 5 -39 66 -40
25 0 73 -14 106 -31 33 -17 104 -36 157 -43 78 -9 99 -20 107 -54 5 -23 16
-58 24 -77 13 -32 8 -33 -43 -15 -54 21 -54 18 20 -50 63 -59 75 -81 64 -122
-8 -33 -5 -47 8 -38 29 18 26 -15 -6 -59 -38 -52 -60 8 -31 84 19 50 14 61
-50 117 -78 67 -102 146 -35 110 32 -18 36 -14 28 26 -7 40 -24 49 -109 59
-56 6 -122 26 -148 42 -26 17 -67 31 -92 31 -119 1 -195 98 -96 123 76 19 80
19 80 -3z"/>
<path d="M3450 3699 c-39 -11 -19 -12 60 -5 66 6 124 14 128 19 15 13 -126 3
-188 -14z"/>
<path d="M2161 3539 c-59 -11 -110 -22 -113 -24 -3 -3 219 -5 492 -5 273 0
503 7 512 15 8 8 -106 15 -254 15 -147 0 -326 4 -398 9 -71 5 -179 0 -239 -10z"/>
<path d="M3645 3545 c41 -4 109 -4 150 0 41 5 8 8 -75 8 -82 0 -116 -3 -75 -8z"/>
<path d="M2160 3401 c-47 -10 32 -17 240 -18 171 -2 414 -13 540 -25 175 -16
266 -16 380 3 177 29 265 69 100 45 -133 -19 -395 -20 -850 -2 -187 8 -371 6
-410 -3z"/>
<path d="M3810 3078 c-44 -9 -102 -22 -130 -27 -169 -33 -359 -116 -374 -163
-7 -22 39 -23 94 -2 244 91 444 140 570 139 114 -1 131 2 90 19 -27 11 -66 28
-85 38 -39 20 -54 20 -165 -4z"/>
<path d="M1755 3037 c-30 -11 -51 -28 -45 -36 5 -9 -4 -28 -20 -41 -80 -67
-32 -93 90 -50 97 34 225 38 381 11 256 -43 299 -45 299 -13 0 87 -546 187
-705 129z"/>
<path d="M2044 2798 c-108 -18 -195 -53 -178 -71 6 -5 58 4 116 22 133 39 259
40 352 1 92 -39 109 -26 22 16 -93 43 -189 53 -312 32z"/>
<path d="M3405 2746 c-113 -59 -138 -80 -121 -101 18 -21 13 -30 -20 -38 -69
-18 -30 -47 58 -44 70 3 140 37 75 37 -18 0 -15 10 7 33 31 30 38 29 96 -20
83 -70 141 -67 210 10 55 63 57 63 89 24 31 -40 81 -42 81 -4 0 86 -321 119
-460 47 -102 -53 -93 -19 11 42 121 70 275 86 391 40 46 -19 87 -29 93 -24 23
23 -150 72 -253 72 -93 0 -141 -14 -257 -74z"/>
<path d="M2032 2680 c-46 -8 -93 -34 -114 -62 -42 -56 -13 -78 40 -30 48 44
107 40 137 -8 45 -71 225 -38 225 41 0 27 31 23 116 -13 49 -22 64 -36 44 -43
-16 -5 -61 -25 -100 -42 -74 -35 -256 -44 -340 -17 l-50 16 50 -30 c70 -42
182 -39 359 10 177 49 198 63 136 92 -218 104 -321 121 -503 86z"/>
<path d="M2497 2661 c26 -22 68 -41 93 -41 85 0 101 -51 41 -131 -30 -39 -65
-67 -78 -63 -13 5 -41 -1 -63 -12 -34 -18 -36 -16 -15 9 25 31 26 31 -85 18
-11 -1 -3 -15 19 -32 28 -21 30 -29 10 -29 -25 -1 -25 -3 0 -19 42 -27 -50
-59 -228 -79 l-141 -17 124 -2 c177 -4 325 56 459 186 161 156 145 229 -55
244 l-128 10 47 -42z"/>
<path d="M1990 2460 c79 -52 166 -68 251 -44 65 18 62 19 -41 17 -66 0 -137
13 -178 33 -91 46 -106 43 -32 -6z"/>
<path d="M3217 2450 c52 -106 226 -206 363 -209 27 0 27 2 0 19 -23 15 -16 20
30 21 84 2 8 35 -90 39 -58 2 -63 6 -30 20 35 15 32 18 -20 21 -125 8 -190 31
-236 86 -33 39 -35 39 -17 3z"/>
<path d="M2555 1939 c-84 -129 -94 -196 -35 -249 55 -50 74 -24 21 29 -51 51
-43 94 42 216 33 47 57 93 54 102 -4 9 -41 -36 -82 -98z"/>
<path d="M3318 1849 c24 -84 34 -99 38 -61 5 42 -43 172 -64 172 -4 0 8 -50
26 -111z"/>
<path d="M3553 1758 c23 -23 99 -62 169 -87 71 -25 146 -53 168 -62 39 -15 39
-15 4 26 -20 23 -95 57 -165 76 -71 19 -139 47 -151 62 -13 15 -33 27 -45 27
-12 0 -3 -19 20 -42z"/>
<path d="M3138 1667 c-26 -29 -75 -69 -108 -90 -33 -20 -51 -37 -40 -37 20 0
86 42 208 130 54 40 60 50 28 50 -21 0 -61 -24 -88 -53z"/>
<path d="M2650 1662 c22 -11 58 -20 79 -21 21 0 73 -25 115 -54 42 -29 81 -48
87 -43 23 23 -154 120 -235 128 -64 6 -76 4 -46 -10z"/>
<path d="M2040 1521 c-13 -33 -18 -76 -9 -96 11 -26 19 -13 32 54 20 107 11
123 -23 42z"/>
<path d="M2260 1399 c0 -11 8 -19 17 -19 10 0 73 -49 141 -110 241 -215 541
-277 790 -163 122 55 132 64 72 64 -22 0 -40 -8 -40 -18 0 -10 -14 -7 -30 7
-26 22 -29 20 -17 -10 11 -30 6 -34 -29 -25 -23 6 -46 0 -52 -12 -6 -16 -14
-15 -28 4 -15 21 -21 19 -32 -10 -12 -30 -17 -31 -33 -6 -12 19 -18 21 -19 4
0 -39 -40 -29 -41 10 -2 31 -3 31 -17 -2 -13 -36 -16 -36 -48 -4 -19 19 -34
24 -34 11 0 -28 -81 -7 -110 29 -11 14 -29 26 -39 26 -11 1 -23 12 -27 24 -9
26 115 27 222 2 63 -14 108 -7 249 41 95 32 192 58 215 58 23 0 60 14 81 32
38 31 38 31 -1 18 -22 -7 -109 -20 -192 -29 -84 -8 -181 -29 -215 -46 -55 -28
-73 -28 -157 -3 -52 16 -175 38 -273 49 -99 11 -219 37 -266 58 -48 22 -87 30
-87 20z"/>
<path d="M3006 875 c80 -14 130 -13 160 1 35 17 10 21 -116 20 l-160 -1 116
-20z"/>
</g>
</svg>
