<?xml version="1.0" standalone="no"?>
<!DOCTYPE svg PUBLIC "-//W3C//DTD SVG 20010904//EN"
 "http://www.w3.org/TR/2001/REC-SVG-20010904/DTD/svg10.dtd">
<svg version="1.0" xmlns="http://www.w3.org/2000/svg"
 width="300.000000pt" height="324.000000pt" viewBox="0 0 300.000000 324.000000"
 preserveAspectRatio="xMidYMid meet">
<metadata>
Created by potrace 1.10, written by Peter Selinger 2001-2011
</metadata>
<g transform="translate(0.000000,324.000000) scale(0.100000,-0.100000)"
fill="#141414" stroke="none">
<path d="M0 1620 l0 -1620 1500 0 1500 0 0 1620 0 1620 -1500 0 -1500 0 0
-1620z m990 1380 c0 -5 -15 -17 -32 -26 -32 -16 -32 -16 -18 1 14 17 14 17
-16 2 -47 -24 -121 -112 -142 -168 -20 -56 -32 -53 -50 11 -9 32 -10 33 -11 8
-1 -15 3 -38 9 -53 5 -14 6 -24 1 -21 -17 11 -41 75 -42 113 0 35 -1 36 -11
15 -10 -21 1 -85 26 -142 5 -12 -5 -15 -61 -15 -38 -1 -79 -7 -91 -14 -33 -18
-23 -22 22 -10 44 12 84 7 51 -6 -11 -4 -36 -15 -55 -23 l-35 -16 40 -6 c22
-4 31 -8 20 -9 -11 -1 -31 -8 -45 -17 -25 -15 -25 -15 10 -8 l35 6 -45 -30
c-25 -16 -53 -39 -64 -50 -24 -27 -36 -20 -36 21 -1 27 -2 29 -11 14 -10 -16
-6 -68 8 -122 11 -43 -25 19 -40 70 -9 28 -16 41 -16 29 -1 -11 6 -43 14 -70
24 -79 15 -76 -15 6 -14 38 -16 58 -9 76 10 29 29 23 30 -9 0 -17 3 -15 12 10
16 43 31 46 35 6 4 -41 11 -41 47 -3 30 31 28 38 -6 20 -26 -15 -25 5 2 24 12
8 18 19 15 25 -4 5 4 17 16 25 25 18 17 22 -12 6 -25 -14 -34 3 -12 23 30 27
89 47 138 47 40 0 45 2 39 18 -19 50 -26 108 -16 135 16 42 31 32 31 -20 1
-38 3 -44 11 -30 15 26 26 21 33 -18 4 -19 10 -35 14 -35 4 0 15 20 25 45 10
24 36 64 58 88 50 58 149 109 149 77z m330 -28 c0 -5 -9 -17 -21 -28 -11 -10
-25 -27 -31 -38 -9 -17 -8 -17 20 2 44 32 83 27 51 -5 -7 -7 15 -1 47 12 79
32 138 42 132 24 -2 -7 -15 -16 -27 -19 -13 -3 12 -6 55 -7 49 -1 100 -8 133
-20 58 -21 78 -43 39 -43 l-23 -1 25 -14 c23 -12 27 -11 52 12 28 26 60 24 37
-3 -15 -18 -9 -18 30 2 39 20 101 29 135 20 35 -9 33 -26 -3 -26 -36 0 -92
-18 -111 -37 -13 -13 -11 -13 15 -7 63 15 165 5 165 -16 0 -6 -19 -11 -42 -11
-27 -1 -34 -3 -18 -6 40 -7 67 -52 33 -54 -10 0 5 -8 34 -18 68 -23 98 -44
132 -91 29 -41 41 -38 41 11 0 25 17 24 25 -1 3 -11 11 -20 17 -20 10 0 7 -34
-9 -99 -5 -21 -4 -22 15 -12 26 14 102 15 102 1 0 -5 -7 -10 -16 -10 -9 0 -32
-8 -51 -17 -30 -14 -33 -18 -17 -23 15 -6 14 -8 -10 -14 -57 -14 -38 18 29 49
23 11 26 14 10 15 -11 0 -33 -7 -49 -15 -35 -19 -40 -16 -26 19 5 15 10 37 10
49 0 18 -2 19 -11 7 -7 -11 -8 -4 -4 25 l6 40 -19 -34 -19 -33 -27 46 c-39 68
-98 98 -200 105 l-81 5 40 13 40 13 -45 -5 c-58 -8 -45 4 22 21 l53 12 -53 1
c-30 1 -66 -6 -82 -14 -41 -21 -38 -1 4 24 22 14 51 21 87 22 48 1 51 2 24 10
-29 8 -106 0 -149 -17 -16 -6 -17 -5 -7 14 14 26 41 41 101 58 45 12 45 12 10
13 -42 0 -104 -21 -131 -45 -24 -22 -34 -13 -19 16 18 33 4 36 -16 3 -10 -15
-19 -30 -20 -31 -1 -2 -16 6 -33 19 -23 17 -50 24 -118 29 l-88 7 105 2 c123
2 118 19 -8 29 -62 5 -71 7 -47 14 19 4 5 5 -36 3 -36 -3 -88 -11 -117 -19
-28 -7 -49 -9 -46 -4 10 16 -13 8 -50 -17 -36 -25 -36 -25 -25 -2 6 12 19 31
28 41 20 25 2 15 -52 -27 l-37 -29 11 29 c5 15 22 40 37 56 41 43 12 31 -37
-15 l-44 -43 22 38 c27 44 19 48 -17 9 -26 -28 -28 -28 -77 -16 l-50 13 48 -6
c43 -5 52 -2 77 22 18 17 36 26 48 23 10 -3 27 1 37 8 21 16 35 18 35 6z
m-297 -21 c-2 -6 9 -11 25 -11 25 -1 26 -2 9 -14 -18 -14 -18 -14 0 -19 13 -3
11 -5 -7 -6 -14 -1 -44 -10 -67 -21 -56 -25 -54 -17 4 20 26 17 44 30 41 30
-12 0 -93 -39 -128 -61 l-35 -23 25 28 c14 15 45 39 70 52 50 26 30 33 -27 9
-39 -17 -46 -16 -34 3 4 7 27 15 51 17 24 3 45 7 48 10 9 9 27 -2 25 -14z
m500 -68 c-7 -2 -19 -2 -25 0 -7 3 -2 5 12 5 14 0 19 -2 13 -5z m-35 -433 c19
-25 49 -61 66 -81 17 -19 3 -7 -31 27 -61 63 -106 128 -117 174 -4 14 5 3 20
-25 14 -27 42 -70 62 -95z m-346 52 c-3 -51 0 -76 12 -100 9 -18 14 -32 12
-32 -15 0 -36 65 -36 107 0 43 8 93 15 93 1 0 0 -31 -3 -68z m377 13 c0 -5 -4
-3 -9 5 -5 8 -9 22 -9 30 0 16 17 -16 18 -35z m110 -85 c13 -19 33 -45 44 -57
11 -13 18 -25 15 -28 -7 -8 -91 110 -105 148 -6 18 -12 41 -12 52 0 11 7 -3
17 -30 10 -28 28 -66 41 -85z m50 -6 c27 -41 28 -44 6 -19 -30 33 -75 122 -74
145 0 8 8 -6 18 -31 10 -25 32 -68 50 -95z m-577 -29 c17 -31 55 -70 98 -98
13 -10 19 -17 13 -17 -22 0 -98 67 -120 105 -18 31 -22 55 -21 105 l1 65 7
-65 c3 -36 14 -78 22 -95z m74 97 c1 -57 14 -97 54 -162 22 -35 22 -35 1 -10
-51 59 -81 150 -67 205 4 14 7 25 9 25 1 0 2 -26 3 -58z m-798 -22 c0 -9 -3
-7 -8 5 -7 17 -9 16 -9 -10 -1 -16 10 -54 24 -82 26 -57 18 -68 -22 -31 -22
21 -24 21 -18 3 3 -11 -1 -7 -10 8 -31 53 -27 20 5 -43 22 -44 28 -65 20 -70
-8 -5 -8 -16 3 -43 9 -19 13 -38 9 -41 -3 -4 6 -19 20 -34 52 -55 63 -115 28
-147 -16 -15 -22 -15 -35 -5 -8 7 -15 21 -15 32 0 12 -4 16 -11 12 -8 -5 -10
2 -6 22 5 27 4 27 -9 9 -12 -16 -20 -61 -15 -88 1 -5 -8 -5 -20 -2 -15 5 -19
4 -14 -5 6 -9 2 -9 -15 0 -12 6 -24 9 -27 6 -3 -3 2 -8 11 -12 9 -3 16 -11 16
-17 0 -5 -8 -3 -18 6 -10 10 -24 17 -30 17 -7 0 -12 5 -12 10 0 9 25 14 73 13
11 0 20 10 24 26 9 41 32 81 46 81 7 0 13 -18 14 -47 3 -55 14 -70 37 -48 26
27 20 69 -19 115 -19 23 -35 45 -36 48 0 4 -3 18 -5 32 -2 14 -6 44 -8 67 -2
23 -10 52 -18 65 -36 55 -46 139 -11 92 8 -10 16 -18 20 -16 3 2 14 -9 24 -25
23 -34 24 -29 4 27 -16 45 -20 112 -8 124 8 8 21 -26 21 -54z m1204 -67 c6 -7
8 -13 4 -13 -9 0 -66 91 -66 104 0 6 12 -9 26 -34 14 -25 30 -51 36 -57z m758
42 c0 -3 -12 -17 -26 -30 -29 -27 -20 -34 12 -10 24 18 34 19 34 1 0 -8 -12
-24 -27 -35 -27 -20 -27 -20 -5 -21 36 0 92 -27 92 -44 0 -9 4 -16 9 -16 14 0
71 -50 71 -62 0 -6 -19 -7 -50 -3 -27 4 -50 5 -50 2 0 -3 19 -15 43 -27 79
-40 157 -144 136 -181 -13 -26 -21 -24 -14 4 3 12 2 34 -4 47 -9 24 -10 23
-11 -10 -1 -34 -2 -34 -14 13 -20 73 -77 122 -166 142 l-35 8 40 9 c22 5 55 6
73 3 18 -3 32 -2 32 4 0 17 -67 51 -131 66 l-64 14 58 -3 c75 -4 59 16 -18 22
l-56 5 30 18 c40 24 39 30 -1 18 -50 -14 -56 -10 -23 16 17 14 31 29 31 35 1
5 2 12 3 15 1 7 31 6 31 0z m-1546 -63 c11 -13 69 -48 127 -78 58 -30 115 -64
125 -76 13 -15 5 -12 -28 11 -26 17 -86 49 -132 71 -65 29 -90 47 -110 76 -14
21 -26 43 -26 49 0 5 6 1 12 -10 6 -11 20 -31 32 -43z m931 28 c3 -5 4 -10 1
-10 -3 0 -8 5 -11 10 -3 6 -4 10 -1 10 3 0 8 -4 11 -10z m-1010 -10 c3 -5 4
-10 1 -10 -3 0 -8 5 -11 10 -3 6 -4 10 -1 10 3 0 8 -4 11 -10z m1316 -132 c13
-45 30 -78 53 -102 18 -20 30 -36 26 -36 -4 0 -23 17 -43 39 -28 31 -39 56
-56 129 -21 91 -27 135 -9 72 5 -19 19 -65 29 -102z m-4 115 c-4 -3 -7 0 -7 7
0 7 3 10 7 7 3 -4 3 -10 0 -14z m-1282 -13 c3 -5 51 -32 105 -60 87 -45 170
-109 170 -132 0 -5 -15 9 -34 30 -21 22 -74 58 -130 87 -100 52 -150 84 -129
85 6 0 15 -4 18 -10z m1349 -145 c10 -15 16 -29 13 -31 -13 -13 -78 127 -76
165 0 9 10 -12 23 -46 13 -34 31 -74 40 -88z m125 35 c0 -30 -3 -63 -7 -72 -4
-10 -7 17 -7 60 0 42 -3 88 -7 102 -6 19 -4 18 7 -5 8 -16 14 -55 14 -85z
m-1334 -12 c6 -6 -17 4 -50 22 -79 44 -135 79 -135 85 0 6 173 -94 185 -107z
m1239 44 c-5 -8 -56 32 -66 52 -8 15 1 11 29 -14 22 -19 38 -36 37 -38z m23
41 c-4 -3 -7 0 -7 7 0 7 3 10 7 7 3 -4 3 -10 0 -14z m30 -50 c-3 -10 -5 -4 -5
12 0 17 2 24 5 18 2 -7 2 -21 0 -30z m-774 -79 c16 -8 47 -19 70 -24 37 -7 38
-8 11 -9 -38 -1 -123 40 -155 76 l-24 27 35 -27 c19 -15 48 -34 63 -43z m32
18 c11 -6 14 -12 8 -12 -7 0 -25 12 -41 28 -15 15 -19 20 -7 11 11 -9 29 -21
40 -27z m401 -23 c-4 -31 -3 -49 4 -49 5 0 10 20 10 45 0 53 16 60 26 10 3
-19 10 -38 14 -40 5 -3 5 9 0 27 -11 37 -10 40 10 25 24 -18 47 -59 64 -113
l16 -49 -4 45 -5 45 26 -55 c24 -49 27 -72 34 -215 4 -88 11 -178 15 -200 8
-40 8 -40 14 -10 l6 30 22 -35 c12 -19 27 -51 32 -70 7 -27 56 -384 61 -445 0
-5 4 -1 9 10 7 16 9 17 9 3 1 -9 5 -19 10 -22 4 -3 5 13 1 36 -10 53 4 96 25
78 8 -6 17 -21 21 -32 5 -18 7 -18 18 -2 35 48 50 -50 17 -114 -30 -58 -74
-98 -103 -93 -4 0 -10 -11 -14 -27 -3 -15 -9 -36 -14 -47 -5 -11 -18 -56 -30
-100 -25 -94 -51 -155 -88 -209 -30 -43 -110 -109 -123 -100 -5 3 -9 -3 -9
-13 -1 -12 -5 -8 -14 12 l-13 30 -13 -45 c-20 -69 -29 -69 -13 0 7 34 12 64 9
67 -2 2 -12 -31 -22 -74 -19 -85 -39 -124 -30 -58 5 37 5 37 -8 -9 -8 -27 -28
-63 -44 -80 -16 -17 -40 -44 -53 -59 -36 -43 -75 -59 -148 -61 l-65 -1 -13 40
-13 40 4 -43 4 -42 -56 1 c-70 1 -90 8 -109 40 -8 13 -12 16 -9 7 10 -33 -15
-18 -30 17 -15 36 -27 48 -18 18 4 -15 3 -15 -8 1 -7 11 -66 74 -130 140 -65
67 -118 125 -118 129 0 5 -4 6 -9 3 -5 -4 -17 17 -26 45 -19 55 -30 63 -15 9
15 -52 -2 -25 -21 33 -9 29 -17 44 -18 35 -1 -9 4 -29 9 -44 9 -24 9 -25 -5
-14 -8 7 -15 20 -15 29 0 9 -9 43 -20 76 -19 57 -20 54 -5 -25 9 -55 -9 -14
-30 63 -9 37 -21 67 -25 67 -5 0 -12 15 -15 32 -4 18 -10 37 -13 43 -3 5 -5
25 -3 45 1 19 -5 64 -13 100 -19 81 -20 162 -1 265 8 44 21 112 27 150 7 39
15 72 19 75 4 3 7 19 7 35 0 17 2 39 5 50 3 11 6 28 6 39 1 15 4 16 16 6 12
-10 13 -6 8 26 -5 29 -3 35 7 29 10 -6 12 -4 7 9 -10 24 30 89 50 82 9 -4 13
0 11 12 -2 9 3 16 9 15 7 -2 12 0 12 5 -3 20 3 22 23 8 12 -9 29 -16 38 -16 8
1 2 8 -13 16 -36 20 -21 42 25 37 26 -2 29 -1 13 6 -18 8 -19 9 -2 16 9 4 26
5 37 2 11 -3 18 -1 14 4 -3 5 1 10 8 11 14 1 30 5 38 8 24 9 55 8 66 -1 11 -9
14 -8 14 5 0 23 16 20 35 -6 l17 -23 -7 23 c-3 12 -2 22 3 22 5 0 15 -20 21
-44 6 -25 15 -47 20 -50 5 -3 2 17 -6 45 -8 28 -12 53 -9 57 12 11 29 -17 29
-48 0 -17 3 -26 7 -20 4 7 11 11 16 10 5 -1 12 9 16 22 4 13 5 1 3 -27 -4 -42
-3 -46 6 -25 6 14 9 42 7 62 -2 23 1 39 8 42 20 8 21 -73 3 -128 -17 -51 -17
-51 2 -26 10 14 30 36 43 50 34 35 46 63 46 104 0 19 5 38 10 41 18 11 11 -59
-11 -99 -23 -44 -20 -59 5 -21 10 15 21 49 26 77 7 49 18 65 62 89 12 6 9 -6
-13 -51 -35 -73 -38 -94 -3 -27 29 56 41 62 19 10 -8 -20 -13 -38 -11 -40 6
-6 32 45 40 81 8 33 35 76 47 76 15 0 10 -49 -7 -78 l-16 -27 21 24 c13 15 21
37 21 60 0 34 14 61 31 61 4 0 3 -14 -2 -32 -5 -17 -7 -34 -4 -36 2 -2 8 13
14 34 6 22 15 46 21 54 8 12 10 11 10 -8 0 -13 -5 -32 -10 -43 -6 -10 -8 -19
-5 -19 3 0 13 15 21 33 l15 32 -5 -39 c-5 -35 -4 -37 8 -20 7 10 19 37 26 59
17 53 18 55 36 48 13 -5 15 -16 10 -54z m-54 21 l-9 -24 -5 22 c-4 12 -2 20 3
16 5 -3 9 0 9 7 0 7 2 10 5 7 3 -3 2 -16 -3 -28z m-253 -6 c14 -12 -19 -1 -35
12 -18 14 -18 14 6 3 14 -6 27 -13 29 -15z m-272 -60 c32 -13 51 -24 43 -24
-21 0 -136 55 -145 70 -4 7 4 4 19 -5 14 -9 52 -28 83 -41z m253 46 c20 -6 21
-8 5 -8 -11 0 -29 3 -40 8 -25 11 1 11 35 0z m1100 -135 c0 -8 6 -12 14 -9 18
7 27 -30 20 -77 -6 -35 -4 -37 28 -48 38 -13 106 -76 94 -88 -4 -4 -25 3 -48
15 l-40 24 26 -38 c14 -21 26 -50 26 -64 0 -23 -3 -22 -39 20 -44 50 -55 50
-41 -1 13 -43 13 -134 1 -176 -7 -23 -6 -33 2 -36 7 -2 2 -9 -10 -15 -21 -12
-21 -12 -7 41 18 67 18 141 0 200 -8 26 -10 47 -5 47 5 0 27 -16 49 -36 22
-20 40 -33 40 -29 0 16 -54 77 -84 96 -49 30 -6 23 58 -10 31 -15 55 -23 53
-17 -5 17 -68 57 -99 63 -28 6 -30 15 -12 71 2 6 -1 12 -6 12 -6 0 -10 -4 -10
-8 0 -5 -6 -16 -12 -25 -11 -14 -13 -7 -14 48 0 35 3 62 8 59 4 -3 8 -12 8
-19z m-1144 -40 c7 -19 -13 -80 -32 -95 -12 -10 -14 -8 -14 14 0 16 4 25 10
21 6 -4 10 10 10 34 0 40 15 55 26 26z m-49 -27 c-3 -8 -6 -5 -6 6 -1 11 2 17
5 13 3 -3 4 -12 1 -19z m1120 5 c-4 -3 -7 0 -7 7 0 7 3 10 7 7 3 -4 3 -10 0
-14z m-1188 -35 c0 -28 -2 -30 -9 -13 -12 28 -12 45 0 45 6 0 10 -15 9 -32z
m-1051 -57 c3 -9 -2 -11 -18 -6 -17 6 -21 4 -15 -6 5 -8 -2 -5 -15 6 l-23 20
11 -20 c5 -11 20 -29 31 -39 15 -14 21 -31 21 -64 0 -37 -6 -51 -40 -89 -39
-44 -56 -92 -47 -130 3 -15 5 -14 14 7 6 14 17 31 25 38 12 10 15 7 15 -18 0
-28 -16 -44 -18 -17 0 6 -7 -3 -16 -22 -11 -27 -17 -31 -24 -20 -25 39 -2 122
50 181 43 49 43 103 1 143 -42 40 -39 57 7 53 20 -2 39 -10 41 -17z m2082
-247 c0 5 9 1 20 -9 11 -10 17 -21 15 -26 -3 -4 4 -11 16 -14 11 -4 18 -9 16
-12 -9 -9 -64 26 -81 51 -20 31 -21 47 -1 20 8 -10 15 -15 15 -10z m-2072
-161 c18 -33 21 -29 15 20 l-6 42 27 -24 26 -24 0 26 c0 26 22 38 34 18 4 -5
7 -67 9 -137 l2 -127 -40 -12 -40 -12 39 -8 c29 -6 35 -10 23 -16 -15 -9 -77
18 -77 32 0 4 20 10 45 13 l45 7 -6 122 c-4 67 -11 127 -16 132 -6 6 -9 1 -8
-15 3 -41 1 -44 -20 -25 -28 26 -37 11 -17 -30 9 -19 13 -37 8 -39 -20 -13
-71 76 -71 124 0 16 -5 30 -10 30 -7 0 -6 9 2 23 12 20 13 17 18 -38 3 -33 11
-70 18 -82z m2392 124 c0 -17 -25 -54 -67 -98 l-34 -36 25 -49 c28 -54 38
-114 19 -121 -7 -3 -11 12 -10 45 2 39 -3 56 -26 85 l-27 36 45 45 c25 25 44
49 43 53 -1 5 1 18 6 31 8 24 26 30 26 9z m-354 -44 c15 -20 23 -33 16 -29
-13 8 -56 66 -49 66 3 0 17 -17 33 -37z m25 10 c13 -16 12 -17 -3 -4 -10 7
-18 15 -18 17 0 8 8 3 21 -13z m-39 -269 c31 -34 43 -52 28 -43 -51 33 -142
175 -165 259 -3 14 14 -16 39 -66 26 -52 68 -117 98 -150z m-22 124 c6 -10 8
-18 5 -18 -8 0 -65 92 -65 104 0 6 11 -7 25 -29 13 -22 29 -48 35 -57z m19
-90 l33 -43 -35 38 c-32 35 -97 145 -97 163 0 5 15 -19 34 -53 18 -33 47 -81
65 -105z m281 60 c21 -34 30 -79 10 -48 -7 11 -10 7 -10 -18 0 -18 -4 -40 -10
-50 -5 -9 -14 -29 -20 -44 -6 -19 -14 -26 -25 -22 -11 5 -18 0 -22 -14 -2 -11
-13 -22 -24 -25 -13 -4 -19 -14 -19 -34 -1 -15 -7 -39 -15 -53 -8 -14 -15 -38
-15 -55 0 -37 -13 -58 -31 -53 -18 4 -91 -51 -83 -63 3 -5 -1 -9 -9 -9 -8 0
-24 14 -35 31 -19 31 -20 31 -27 10 -4 -12 -4 -33 -1 -47 5 -18 2 -24 -11 -24
-14 0 -13 -4 6 -24 48 -51 -14 -49 -71 2 -20 17 -17 23 -43 -78 -29 -112 -79
-194 -164 -268 -42 -37 -130 -122 -196 -189 -79 -80 -132 -125 -154 -132 -19
-6 -93 -11 -164 -11 -162 0 -192 12 -274 109 -32 36 -123 131 -204 211 -156
155 -185 198 -218 323 -9 34 -24 73 -33 86 l-18 25 -23 -22 c-23 -22 -64 -31
-52 -12 4 6 11 8 16 5 5 -4 19 5 32 19 l24 26 22 -23 c11 -13 28 -50 36 -83
29 -112 80 -200 163 -278 111 -104 158 -151 245 -249 107 -119 125 -127 279
-127 181 0 180 0 338 159 74 75 161 158 192 184 67 56 114 141 148 270 l23 85
40 -29 c50 -36 64 -37 39 -1 -10 15 -25 38 -32 52 -13 24 -12 25 7 8 26 -24
33 -23 33 6 0 14 5 37 11 53 l11 28 19 -37 c11 -21 21 -38 22 -38 2 0 1 16 -1
35 -5 41 4 85 18 85 6 0 9 -19 9 -42 l-2 -43 -7 35 c-7 35 -7 35 -9 5 -2 -68
26 -65 48 5 l11 35 -4 -37 c-3 -21 -3 -38 0 -38 3 0 13 19 24 43 l19 42 1 -35
c0 -29 2 -32 11 -17 6 10 9 28 7 41 -1 13 4 31 11 40 17 20 34 106 33 160 -2
47 4 44 17 -10 8 -36 9 -37 10 -9 1 17 -3 46 -9 65 -9 32 -8 33 5 16 8 -11 15
-28 15 -38 0 -10 5 -18 11 -18 7 0 8 20 5 58 -4 39 -3 51 3 37 5 -11 10 -42
11 -70 l2 -50 11 34 c7 23 7 48 0 82 -11 55 4 53 18 -3 8 -30 8 -29 5 12 -2
25 -7 53 -11 63 -12 29 4 19 25 -15z m-2150 -178 c0 -5 -8 -10 -17 -10 -15 0
-16 -2 -3 -10 12 -8 12 -10 -5 -10 -17 0 -17 -2 -5 -10 8 -5 25 -10 38 -10 13
0 37 -7 53 -16 17 -8 52 -18 79 -21 38 -4 49 -10 53 -27 2 -11 8 -29 12 -39 6
-15 4 -16 -21 -7 -28 10 -27 9 9 -25 32 -29 38 -40 33 -61 -5 -17 -3 -23 4
-19 14 9 13 -8 -3 -29 -13 -17 -14 -17 -20 -2 -4 9 -2 29 4 44 10 24 7 30 -25
58 -39 34 -51 73 -17 55 15 -9 17 -7 14 13 -4 20 -13 24 -55 29 -28 4 -61 13
-74 22 -13 8 -34 15 -46 15 -32 0 -73 23 -73 40 0 8 11 18 25 21 38 10 40 10
40 -1z m1427 -727 c-4 -3 -7 0 -7 7 0 7 3 10 7 7 3 -4 3 -10 0 -14z"/>
<path d="M553 2683 c4 -3 10 -3 14 0 3 4 0 7 -7 7 -7 0 -10 -3 -7 -7z"/>
<path d="M1390 2905 c-14 -8 -20 -14 -15 -14 6 0 21 6 35 14 14 8 21 14 15 14
-5 0 -21 -6 -35 -14z"/>
<path d="M1725 1849 c-20 -5 -9 -6 30 -2 33 3 62 7 64 9 8 7 -63 2 -94 -7z"/>
<path d="M1081 1769 c-30 -5 -56 -10 -57 -12 -1 -1 109 -2 246 -2 137 0 252 3
256 8 4 4 -53 7 -127 7 -74 0 -163 2 -199 5 -36 2 -89 0 -119 -6z"/>
<path d="M1823 1773 c20 -2 54 -2 75 0 20 2 3 4 -38 4 -41 0 -58 -2 -37 -4z"/>
<path d="M1758 1763 c7 -3 16 -2 19 1 4 3 -2 6 -13 5 -11 0 -14 -3 -6 -6z"/>
<path d="M1080 1701 c-23 -6 16 -9 120 -10 85 0 207 -6 270 -12 88 -8 133 -8
190 2 88 14 132 34 50 22 -66 -10 -198 -10 -425 -1 -93 4 -186 3 -205 -1z"/>
<path d="M1905 1539 c-22 -5 -51 -11 -65 -14 -84 -16 -179 -57 -187 -81 -4
-11 19 -11 47 -1 122 46 222 70 285 69 57 0 65 2 45 10 -14 5 -33 14 -42 19
-20 10 -28 10 -83 -2z"/>
<path d="M877 1518 c-15 -5 -25 -13 -22 -18 3 -4 -2 -13 -10 -20 -16 -14 -20
-40 -6 -40 5 0 28 7 51 15 49 17 112 19 191 6 127 -22 149 -23 149 -7 0 20 -4
22 -116 51 -103 26 -189 31 -237 13z"/>
<path d="M1022 1399 c-54 -9 -98 -27 -89 -35 3 -3 29 2 58 10 66 20 129 20
176 1 46 -19 55 -13 11 8 -47 22 -95 27 -156 16z"/>
<path d="M1703 1373 c-57 -30 -70 -40 -61 -51 9 -10 6 -14 -10 -19 -12 -3 -19
-9 -16 -14 6 -11 83 -9 90 3 3 4 -1 8 -8 8 -8 0 -7 5 4 16 15 16 19 15 48 -10
42 -34 70 -33 105 6 28 31 28 31 44 11 9 -11 22 -18 29 -15 24 8 11 23 -35 44
-54 24 -129 21 -183 -7 -51 -26 -46 -10 6 21 60 35 137 43 195 20 23 -9 44
-15 46 -12 12 11 -74 36 -126 36 -46 0 -71 -7 -128 -37z"/>
<path d="M1026 1362 c-3 -5 8 -6 25 -4 16 2 29 6 29 8 0 8 -49 4 -54 -4z"/>
<path d="M1016 1340 c-23 -4 -46 -17 -57 -31 -21 -28 -6 -39 20 -15 24 22 54
20 69 -4 22 -35 112 -19 112 21 0 13 15 11 58 -7 24 -11 32 -18 22 -21 -8 -3
-31 -13 -50 -22 -37 -17 -128 -21 -170 -8 l-25 8 25 -15 c35 -21 91 -20 179 5
89 25 99 32 69 46 -109 52 -161 61 -252 43z"/>
<path d="M1249 1331 c13 -12 33 -21 46 -21 12 0 28 -7 35 -15 10 -12 8 -21
-15 -51 -15 -19 -32 -33 -38 -31 -7 2 -21 0 -32 -6 -17 -9 -18 -8 -8 5 13 15
13 15 -42 9 -5 -1 -1 -8 9 -16 14 -11 16 -15 5 -15 -12 0 -12 -2 1 -10 21 -13
-25 -29 -114 -39 l-71 -8 62 -2 c88 -2 163 29 230 93 80 78 72 115 -28 122
l-64 5 24 -20z m21 -125 c0 -3 -5 -8 -12 -12 -7 -4 -8 -3 -4 4 7 12 16 16 16
8z"/>
<path d="M1743 1273 c4 -3 10 -3 14 0 3 4 0 7 -7 7 -7 0 -10 -3 -7 -7z"/>
<path d="M1875 1270 c-11 -5 -33 -11 -49 -15 -15 -3 -27 -8 -24 -10 6 -7 80
13 91 24 13 13 10 13 -18 1z"/>
<path d="M1753 1253 c9 -2 23 -2 30 0 6 3 -1 5 -18 5 -16 0 -22 -2 -12 -5z"/>
<path d="M995 1230 c39 -26 83 -34 126 -22 32 9 31 9 -21 9 -33 -1 -69 6 -89
16 -46 23 -53 21 -16 -3z"/>
<path d="M1608 1225 c26 -53 114 -103 182 -104 13 -1 13 0 0 9 -12 7 -8 10 15
11 26 0 27 2 10 9 -11 5 -36 9 -55 10 -29 1 -32 3 -15 10 17 7 16 9 -10 10
-62 4 -95 16 -118 44 -17 19 -17 19 -9 1z"/>
<path d="M1778 1203 c12 -2 32 -2 45 0 12 2 2 4 -23 4 -25 0 -35 -2 -22 -4z"/>
<path d="M1278 969 c-43 -64 -47 -97 -18 -124 28 -25 37 -12 10 15 -25 25 -21
47 22 108 16 23 28 46 26 50 -2 5 -20 -17 -40 -49z"/>
<path d="M1659 924 c12 -42 17 -49 19 -30 3 21 -21 86 -32 86 -2 0 4 -25 13
-56z"/>
<path d="M1776 879 c12 -11 50 -31 85 -44 35 -12 73 -26 84 -30 19 -8 20 -8 2
12 -10 12 -47 29 -83 39 -35 9 -69 23 -75 30 -6 8 -16 14 -22 14 -6 0 -2 -9 9
-21z"/>
<path d="M1569 834 c-13 -15 -37 -35 -54 -45 -16 -11 -25 -19 -20 -19 10 0 43
21 104 65 27 20 30 25 14 25 -11 0 -30 -12 -44 -26z"/>
<path d="M1325 831 c11 -5 29 -10 39 -10 11 -1 37 -13 58 -27 21 -15 41 -25
43 -22 12 12 -76 60 -117 64 -32 3 -38 2 -23 -5z"/>
<path d="M1006 791 c-10 -11 -16 -26 -14 -33 3 -7 12 2 20 20 19 37 18 39 -6
13z"/>
<path d="M1020 761 c-7 -17 -9 -39 -5 -48 6 -14 10 -7 16 26 10 54 6 62 -11
22z"/>
<path d="M1930 759 c7 -11 14 -19 16 -16 7 7 -7 37 -17 37 -6 0 -5 -9 1 -21z"/>
<path d="M900 740 c0 -7 3 -10 7 -7 3 4 3 10 0 14 -4 3 -7 0 -7 -7z"/>
<path d="M1507 716 c3 -15 10 -29 15 -32 6 -4 7 2 3 17 -10 35 -23 45 -18 15z"/>
<path d="M1436 702 c-4 -13 -5 -26 -2 -29 10 -11 18 4 14 29 l-4 23 -8 -23z"/>
<path d="M1130 699 c0 -5 4 -9 9 -9 5 0 36 -25 70 -55 93 -83 129 -98 243
-103 87 -4 102 -2 152 21 31 14 56 27 56 29 0 2 -9 4 -20 4 -11 0 -20 -4 -20
-9 0 -5 -7 -4 -15 3 -13 11 -14 10 -9 -5 6 -15 3 -17 -14 -13 -11 3 -23 1 -26
-6 -3 -8 -7 -7 -14 2 -7 11 -11 10 -16 -4 -6 -16 -8 -16 -16 -4 -7 10 -10 11
-10 3 0 -20 -20 -15 -21 5 0 15 -1 15 -8 -2 -7 -17 -8 -17 -24 -2 -9 10 -17
12 -17 6 0 -14 -41 -3 -55 15 -5 6 -14 12 -20 13 -5 0 -11 5 -13 11 -4 13 57
14 111 2 32 -8 54 -4 125 20 47 16 95 29 107 29 12 0 30 7 41 16 19 15 19 16
-1 9 -11 -4 -54 -10 -96 -14 -42 -5 -90 -15 -107 -24 -28 -13 -37 -14 -79 -1
-26 8 -87 19 -137 24 -49 6 -109 19 -133 30 -24 10 -43 15 -43 9z"/>
<path d="M1870 600 c0 -7 3 -10 7 -7 3 4 3 10 0 14 -4 3 -7 0 -7 -7z"/>
<path d="M1503 437 c40 -6 65 -6 80 1 17 8 5 11 -58 10 l-80 -1 58 -10z"/>
<path d="M2380 1656 c0 -2 8 -10 18 -17 15 -13 16 -12 3 4 -13 16 -21 21 -21
13z"/>
</g>
</svg>
