<?xml version="1.0" standalone="no"?>
<!DOCTYPE svg PUBLIC "-//W3C//DTD SVG 20010904//EN"
 "http://www.w3.org/TR/2001/REC-SVG-20010904/DTD/svg10.dtd">
<svg version="1.0" xmlns="http://www.w3.org/2000/svg"
 width="640.000000pt" height="640.000000pt" viewBox="0 0 640.000000 640.000000"
 preserveAspectRatio="xMidYMid meet">
<metadata>
Created by potrace 1.14, written by Peter Selinger 2001-2017
</metadata>
<g transform="translate(0.000000,640.000000) scale(0.100000,-0.100000)"
fill="#000000" stroke="none">
<path d="M530 6389 c-226 -33 -424 -205 -502 -436 l-23 -68 -3 -2650 c-3
-2953 -8 -2733 66 -2883 70 -142 222 -273 373 -323 l74 -24 2685 0 2685 0 74
24 c151 50 303 181 373 323 74 150 69 -70 66 2883 l-3 2650 -23 68 c-67 199
-211 344 -409 414 l-78 28 -2650 1 c-1457 1 -2675 -2 -2705 -7z m1658 -461 c2
-10 -18 -30 -52 -53 -48 -32 -75 -55 -64 -55 2 0 35 9 73 20 38 11 83 20 99
20 25 0 28 -3 24 -25 -5 -24 -3 -25 36 -23 31 2 41 -1 44 -14 2 -12 -5 -21
-22 -28 -42 -16 -31 -19 47 -13 39 3 97 0 127 -5 l55 -11 30 35 c17 19 44 44
60 54 32 21 85 27 85 10 0 -6 17 1 37 15 38 25 77 33 87 16 3 -5 -18 -34 -48
-64 -53 -53 -84 -97 -69 -97 3 0 16 9 27 19 26 24 114 71 133 71 31 0 25 -31
-13 -66 -45 -40 -42 -40 46 3 164 79 344 112 324 58 -3 -8 -14 -15 -23 -16 -9
0 -33 -6 -55 -12 -33 -10 -16 -12 126 -12 137 0 168 -3 190 -17 14 -9 51 -23
82 -32 105 -27 136 -66 60 -76 l-39 -5 32 -14 c18 -7 38 -19 44 -27 18 -22 36
-16 49 17 13 30 62 69 88 69 23 0 24 -29 3 -56 -33 -42 -25 -48 22 -16 69 48
130 64 240 64 55 0 103 -4 109 -10 20 -20 0 -42 -36 -42 -75 0 -193 -36 -240
-74 -29 -24 -17 -26 49 -10 125 29 331 8 323 -34 -3 -14 -14 -16 -68 -14 -36
2 -94 0 -130 -4 l-65 -8 91 -7 c99 -7 134 -20 134 -47 0 -10 5 -23 11 -29 20
-20 2 -43 -33 -44 -22 -1 -10 -5 37 -15 136 -27 251 -107 317 -220 25 -44 27
-45 37 -25 7 11 13 42 15 67 6 77 39 86 51 14 5 -29 12 -40 25 -40 10 0 20 -7
24 -15 6 -17 -8 -106 -29 -178 -14 -46 -13 -48 3 -42 45 19 136 45 159 45 31
0 63 -17 63 -34 0 -8 -17 -16 -41 -20 -44 -7 -109 -37 -149 -69 l-25 -20 30 7
c17 4 47 18 68 32 37 24 57 25 57 1 0 -6 -24 -36 -52 -65 l-53 -54 38 16 c21
8 52 25 68 37 28 20 59 20 59 1 0 -5 -24 -32 -54 -61 -55 -51 -55 -51 -28 -56
131 -26 182 -50 182 -85 0 -13 14 -27 40 -40 47 -24 120 -93 120 -114 0 -24
-14 -26 -98 -14 -110 15 -136 3 -56 -26 92 -34 166 -89 210 -158 16 -25 29
-35 39 -32 17 7 54 -64 55 -103 0 -12 5 -25 10 -28 6 -4 10 10 10 35 0 37 2
41 22 38 18 -2 25 -13 35 -53 8 -35 11 -42 12 -22 1 33 25 36 42 5 12 -21 8
-158 -5 -189 -5 -11 7 -21 51 -39 103 -42 203 -126 203 -170 0 -34 -17 -31
-91 15 -40 25 -77 45 -82 45 -5 0 7 -18 28 -41 60 -66 95 -174 60 -186 -6 -2
-28 20 -49 49 -35 48 -104 113 -113 105 -1 -2 7 -41 18 -87 18 -69 20 -103 16
-194 -3 -61 -11 -135 -19 -163 -21 -75 -12 -71 61 26 19 25 41 22 41 -6 0 -39
-128 -209 -181 -240 -34 -21 -36 -33 -8 -59 67 -60 129 -293 84 -311 -21 -8
-23 -5 -40 62 -24 90 -31 92 -31 10 1 -72 -1 -78 -26 -99 -19 -15 -28 -31 -28
-51 0 -41 -22 -80 -45 -81 -11 -1 -28 -2 -37 -3 -11 -1 -19 -13 -24 -37 -8
-41 -31 -55 -50 -30 -14 19 -16 12 -29 -89 -7 -49 -36 -118 -55 -130 -5 -3
-10 -31 -10 -62 0 -30 -7 -70 -16 -88 -24 -50 -64 -58 -64 -13 0 18 -4 16 -22
-12 -13 -18 -38 -41 -56 -51 -51 -27 -73 -50 -66 -71 8 -27 -22 -34 -48 -12
-11 11 -33 41 -49 69 -24 42 -29 46 -36 30 -10 -26 -9 -113 2 -144 8 -23 7
-24 -29 -18 l-36 6 32 -45 c18 -25 38 -50 45 -56 20 -16 16 -38 -7 -38 -26 0
-116 42 -159 74 -19 14 -38 26 -42 26 -4 0 -10 -17 -14 -37 -14 -75 -64 -241
-95 -314 -69 -164 -171 -293 -314 -399 -85 -62 -197 -171 -363 -352 -165 -180
-189 -201 -269 -230 -60 -22 -93 -24 -449 -28 -219 -2 -293 46 -547 350 -100
120 -191 211 -371 370 -124 109 -178 175 -242 294 -49 91 -106 247 -125 342
-9 44 -21 69 -47 97 l-34 38 -49 -45 c-27 -25 -58 -46 -70 -46 -30 0 -36 28
-12 52 17 17 18 24 9 39 -9 15 -9 24 1 39 6 11 12 39 12 64 0 41 -3 46 -55 85
-65 49 -92 92 -70 111 11 9 21 7 46 -11 l32 -23 -7 25 c-4 13 -9 39 -13 57
l-6 32 -66 0 c-74 0 -153 21 -193 50 -15 11 -41 20 -58 20 -47 0 -112 19 -140
40 -21 16 -23 22 -13 38 14 24 8 32 -24 32 -13 0 -26 7 -30 16 -3 8 -30 26
-59 39 -87 38 -70 65 40 65 38 0 70 6 82 15 19 12 20 20 13 62 -4 26 -8 127
-8 224 -1 184 -9 220 -45 206 -15 -6 -15 -10 -1 -43 26 -62 -3 -73 -60 -23
-20 18 -38 29 -42 25 -8 -8 13 -80 38 -128 17 -33 17 -37 2 -49 -13 -12 -20
-9 -45 21 -46 55 -85 140 -96 210 -5 36 -7 71 -5 77 3 7 0 13 -6 13 -6 0 -13
-11 -17 -24 -12 -48 -57 -40 -47 8 9 41 -27 -15 -39 -61 -14 -57 -44 -60 -53
-5 -3 20 -8 45 -10 56 -7 33 16 130 42 178 14 26 49 73 78 104 51 54 53 58 59
131 l7 75 -54 51 c-54 53 -81 104 -67 127 5 8 15 10 26 5 11 -5 25 -7 31 -6 7
1 22 -3 33 -9 11 -6 20 -7 20 -2 0 16 -55 61 -88 73 -50 17 -39 44 18 45 25 0
53 4 63 8 11 5 29 4 44 -3 14 -6 26 -10 27 -9 1 2 7 29 14 62 15 77 41 127 74
146 35 19 45 7 30 -32 -10 -26 -9 -35 3 -48 8 -9 15 -32 15 -51 0 -74 48 -89
84 -28 37 63 12 152 -65 224 -36 35 -71 99 -68 123 2 9 -6 43 -16 75 -15 47
-17 64 -8 88 11 27 7 39 -40 132 -38 76 -51 114 -51 147 -1 50 21 63 39 23 5
-13 19 -23 30 -23 13 0 27 -13 39 -34 19 -36 74 -93 63 -66 -58 145 -69 181
-74 240 -5 61 -3 70 16 86 11 10 21 24 21 30 0 6 7 17 15 24 8 7 17 28 21 47
5 28 10 33 28 31 17 -2 23 -14 32 -63 11 -54 19 -67 14 -22 -1 9 6 42 15 73
14 47 19 55 38 52 19 -3 23 -11 27 -66 3 -34 9 -62 13 -63 4 0 38 28 75 61 66
60 62 68 -16 28 -19 -10 -25 -9 -32 2 -12 19 0 31 70 70 31 17 44 28 29 25
-16 -4 -30 -1 -37 8 -15 17 0 31 78 76 42 24 48 30 25 25 -16 -3 -49 -17 -73
-31 -42 -24 -62 -24 -62 2 0 18 52 60 114 93 46 24 61 26 164 27 96 0 112 2
108 15 -3 8 -14 41 -26 74 -28 77 -36 170 -18 220 12 37 41 67 53 55 3 -3 7
-44 8 -91 4 -95 19 -137 27 -74 9 72 59 73 60 1 0 -37 18 -105 28 -105 4 0 16
21 25 47 63 169 198 317 344 378 63 26 76 27 81 3z"/>
<path d="M2075 5887 c-123 -66 -239 -208 -296 -362 -12 -33 -26 -64 -30 -69
-12 -14 -42 43 -60 113 -15 59 -17 62 -23 36 -6 -27 9 -106 30 -159 12 -31
-13 -10 -41 33 -33 53 -55 134 -56 205 -1 60 -1 60 -14 31 -30 -64 -10 -176
51 -297 l25 -49 -38 8 c-21 4 -79 8 -128 8 -82 0 -97 -3 -158 -33 -74 -37 -84
-51 -21 -28 52 18 160 27 209 18 l40 -8 -57 -8 c-47 -6 -218 -76 -218 -89 0
-2 42 -2 93 0 l92 3 -70 -23 c-77 -26 -168 -72 -125 -63 66 13 163 26 166 23
3 -2 -21 -14 -53 -26 -65 -25 -103 -51 -184 -128 -65 -62 -67 -61 -78 47 -7
62 -8 64 -19 37 -16 -38 -15 -127 3 -212 18 -83 17 -78 5 -70 -18 11 -53 88
-77 170 l-23 80 4 -70 c3 -60 27 -149 61 -229 5 -12 5 -17 -2 -13 -17 11 -72
131 -85 188 l-13 54 -3 -39 c-2 -22 2 -60 8 -85 6 -25 13 -55 16 -66 2 -11 -4
-4 -15 15 -11 19 -23 52 -26 73 -9 49 -20 39 -17 -16 4 -65 30 -145 73 -224
22 -40 35 -73 29 -73 -25 0 -71 32 -110 77 l-41 48 16 -39 c8 -22 20 -46 27
-53 6 -7 9 -16 6 -19 -7 -6 -48 51 -78 109 -14 26 -26 43 -28 39 -4 -12 53
-143 89 -204 39 -65 51 -97 43 -109 -3 -6 -14 -3 -25 7 -12 10 -19 13 -19 5 0
-20 41 -135 57 -160 14 -22 14 -24 -1 -18 -27 11 -18 -5 40 -73 93 -108 111
-167 74 -240 -46 -90 -130 -76 -130 22 0 48 -17 50 -26 3 -3 -19 -10 -38 -15
-41 -14 -8 -10 66 5 109 19 51 3 47 -23 -7 -15 -29 -22 -66 -24 -114 -1 -40
-4 -72 -5 -72 -2 0 -15 9 -29 20 -38 30 -45 24 -20 -17 l22 -38 -35 27 c-19
15 -48 30 -65 33 l-30 7 23 -17 c25 -18 82 -92 82 -107 0 -11 -47 -10 -55 2
-3 6 -11 10 -17 10 -6 0 -3 -11 6 -25 22 -33 14 -32 -29 6 -19 17 -35 27 -35
22 0 -19 50 -81 85 -104 l37 -24 -5 -93 -6 -94 -55 -55 c-31 -30 -69 -82 -86
-116 -26 -53 -30 -70 -29 -141 0 -65 2 -76 11 -56 25 62 44 93 76 126 39 40
49 40 27 -2 -8 -16 -15 -38 -15 -49 1 -18 2 -17 16 5 9 14 26 33 39 42 l22 17
-9 -47 c-14 -80 23 -214 80 -282 l20 -25 -18 55 c-11 30 -19 79 -20 109 l0 53
47 -53 48 -53 5 50 c4 40 9 50 26 52 14 2 29 -6 42 -22 18 -23 20 -46 25 -243
3 -120 8 -228 12 -240 10 -30 -21 -44 -114 -53 l-76 -6 40 -18 c22 -10 67 -21
100 -24 l60 -6 -45 -12 -45 -13 74 1 c66 1 76 -1 89 -20 14 -21 13 -22 -12
-22 -15 0 -36 5 -48 11 -11 6 -22 8 -25 5 -4 -3 18 -17 48 -31 l54 -26 -65 5
c-62 4 -64 4 -34 -9 18 -8 56 -16 86 -18 37 -3 67 -13 94 -30 49 -32 109 -46
199 -47 l70 0 0 -38 c1 -21 11 -57 23 -80 20 -38 20 -42 4 -42 -9 0 -34 9 -55
20 -35 19 -37 19 -28 2 5 -10 34 -36 64 -57 65 -47 79 -87 53 -149 -19 -45 -3
-47 24 -3 19 31 20 31 20 7 0 -23 -13 -47 -57 -110 l-18 -25 32 23 c18 13 46
39 62 59 17 20 32 35 33 32 2 -2 22 -26 44 -54 27 -33 45 -68 54 -105 40 -169
104 -329 171 -427 48 -70 99 -122 239 -248 172 -154 225 -208 360 -370 167
-200 228 -251 345 -287 53 -17 84 -18 285 -14 235 6 313 18 375 56 17 10 71
63 120 117 183 200 323 338 445 438 69 56 140 120 159 143 106 131 183 310
230 534 12 54 21 101 21 104 0 4 15 -8 33 -26 38 -38 90 -73 141 -94 l37 -15
-35 42 c-18 23 -51 74 -72 112 l-39 70 50 -40 c28 -21 55 -43 61 -47 7 -5 9
11 6 50 -3 46 1 70 21 117 15 35 27 54 30 45 19 -61 40 -109 58 -130 l21 -25
-9 30 c-12 44 -9 144 6 195 l13 45 19 -24 c23 -29 26 -115 5 -166 -18 -42 -7
-45 21 -7 19 26 38 79 62 177 9 35 10 31 7 -35 -2 -52 -8 -84 -21 -103 -19
-30 -7 -37 17 -9 30 33 48 81 48 127 0 25 4 45 9 45 14 0 34 -97 27 -128 l-6
-27 21 25 c18 21 20 34 17 85 -5 55 -2 63 23 92 18 21 31 52 38 90 6 32 15 77
21 101 14 60 12 131 -5 187 -8 27 -13 51 -10 53 9 9 38 -66 55 -141 l18 -82 1
56 c1 30 -8 89 -18 129 -11 41 -18 76 -16 78 8 8 43 -61 55 -106 25 -99 30
-89 26 53 -4 133 -3 138 11 105 9 -19 21 -82 27 -140 l11 -105 13 53 c6 30 12
70 12 90 -1 38 -21 142 -35 175 -4 9 -5 17 -1 17 14 0 41 -57 57 -123 l18 -72
0 65 c0 43 -7 88 -23 133 -12 37 -19 67 -15 67 10 0 57 -57 75 -92 9 -17 24
-56 34 -87 23 -68 26 -38 5 42 -19 75 -47 128 -92 178 -21 24 -32 43 -27 47 6
4 27 17 47 30 33 21 131 132 123 140 -2 1 -21 -9 -41 -23 -42 -28 -52 -27 -36
3 5 10 20 66 31 123 17 79 21 124 17 189 -5 75 -30 189 -52 244 -7 16 -5 17
16 11 42 -12 103 -59 139 -107 19 -26 36 -45 38 -43 3 2 -7 29 -22 59 -31 62
-104 134 -172 166 -25 12 -43 24 -41 27 12 12 147 -35 220 -77 45 -26 84 -46
86 -44 3 3 -13 23 -35 45 -41 43 -120 88 -192 110 -37 11 -42 16 -37 33 18 57
25 95 25 131 l-1 40 -29 -61 c-16 -33 -39 -69 -51 -80 -22 -19 -22 -19 -14 1
23 57 37 136 30 172 l-8 38 -7 -33 c-8 -36 -55 -112 -70 -112 -5 0 -4 13 2 31
12 35 5 136 -11 152 -8 8 -11 -3 -11 -37 0 -47 -25 -153 -40 -169 -4 -5 -1 20
7 55 36 156 -31 281 -192 358 -34 16 -86 35 -116 41 -80 17 -91 26 -44 36 49
10 189 11 233 1 l33 -8 -18 24 c-25 33 -99 82 -153 102 -26 9 -93 18 -160 22
-109 5 -113 6 -82 19 53 22 141 26 195 10 56 -18 62 -8 10 17 -38 18 -197 41
-214 31 -5 -4 -9 -3 -9 2 0 4 20 19 44 31 24 13 55 35 67 48 l23 24 -33 -16
c-18 -9 -63 -18 -100 -21 l-66 -4 35 20 c43 24 123 95 95 85 -143 -52 -158
-53 -125 -11 31 40 106 88 159 102 l46 13 -36 1 c-45 1 -111 -21 -161 -54 -48
-32 -52 -31 -33 5 16 31 55 182 55 215 0 11 -15 -12 -34 -50 -38 -76 -44 -81
-21 -15 8 23 15 68 14 99 l-1 56 -13 -41 c-13 -41 -43 -104 -49 -104 -2 0 -17
29 -35 64 -82 166 -274 259 -506 243 l-80 -5 44 20 c25 11 81 26 125 33 l81
13 -65 1 c-37 1 -95 -7 -135 -18 -38 -11 -71 -18 -73 -16 -13 12 96 50 173 60
l90 12 -40 11 c-76 22 -167 11 -257 -32 -55 -27 -61 -20 -18 22 51 52 109 73
217 80 107 6 97 19 -17 21 -63 1 -211 -28 -251 -49 -27 -15 -24 0 9 46 42 57
166 112 262 115 l35 1 -39 10 c-82 22 -230 -22 -309 -92 -19 -16 -37 -30 -41
-30 -13 0 -5 47 13 83 10 20 16 37 12 37 -15 0 -61 -57 -72 -88 l-11 -32 -38
34 c-58 52 -121 68 -305 75 -142 6 -154 8 -110 16 28 6 127 10 222 10 94 0
166 3 158 7 -58 33 -295 49 -433 29 -29 -4 -49 -4 -45 -1 18 17 109 30 205 31
134 1 91 17 -50 18 -105 1 -252 -22 -342 -54 -24 -8 -45 -13 -48 -11 -9 9 95
66 160 87 37 13 66 24 64 27 -3 2 -41 -8 -85 -22 -86 -27 -185 -78 -246 -126
-21 -17 -39 -30 -41 -30 -13 0 26 69 63 110 25 28 41 50 36 50 -18 0 -99 -59
-151 -109 -41 -40 -52 -47 -47 -29 17 57 56 127 94 171 24 26 39 47 34 47 -20
-1 -107 -75 -146 -125 -23 -30 -43 -51 -45 -46 -5 13 26 70 59 110 16 19 26
37 24 39 -9 9 -86 -52 -105 -83 l-20 -33 -53 14 c-112 30 -232 12 -369 -56
-43 -20 -78 -34 -78 -30 0 16 82 73 158 111 86 42 85 49 -3 19 -66 -23 -147
-66 -218 -117 l-49 -34 19 31 c26 45 91 96 186 146 74 39 78 43 42 37 -33 -4
-127 -37 -205 -70 -10 -5 -9 1 5 24 19 29 72 78 126 115 40 28 8 20 -56 -15z
m967 -824 c54 -118 154 -255 291 -399 82 -87 81 -99 -2 -28 -57 49 -182 200
-242 291 -47 73 -100 211 -98 261 0 19 5 11 14 -25 8 -28 24 -73 37 -100z
m-652 -3 c-21 -39 -24 -159 -6 -227 31 -123 86 -196 207 -279 38 -26 67 -49
64 -52 -9 -9 -100 43 -154 88 -106 89 -152 186 -153 326 0 62 5 94 21 130 12
26 24 45 27 41 3 -3 0 -15 -6 -27z m-700 -361 c33 -31 104 -74 222 -134 95
-48 192 -101 215 -116 55 -38 106 -99 137 -165 35 -74 32 -81 -6 -14 -60 105
-135 166 -313 255 -241 121 -300 166 -334 258 -19 49 -11 54 10 7 11 -25 42
-66 69 -91z m116 12 c41 -46 71 -65 206 -131 183 -91 275 -150 338 -217 25
-26 32 -36 15 -21 -61 54 -205 138 -365 215 -137 66 -172 87 -204 124 -43 50
-76 110 -76 136 1 11 8 5 20 -18 10 -19 40 -59 66 -88z m2063 -267 c3 -3 4
-52 3 -109 -2 -72 1 -105 8 -105 8 0 10 33 8 105 -3 103 1 115 29 97 13 -8 53
-122 53 -151 0 -11 5 -23 10 -26 13 -8 3 63 -16 118 -7 20 -9 37 -4 37 23 0
132 -135 136 -168 0 -4 6 -18 12 -32 6 -14 16 -52 23 -84 6 -35 14 -54 19 -47
9 16 -14 131 -35 171 -28 53 -8 32 33 -37 56 -93 80 -149 87 -208 4 -28 10
-54 13 -59 2 -5 8 -131 13 -280 5 -191 12 -293 24 -346 23 -101 38 -123 30
-42 -3 34 -2 62 2 62 25 -1 63 -55 91 -132 19 -51 59 -230 60 -268 0 -8 3 -35
7 -60 4 -25 9 -63 11 -85 35 -315 69 -549 84 -572 10 -16 11 -16 6 2 -3 11 -7
52 -10 90 l-6 70 18 -65 c20 -72 48 -130 37 -75 -3 17 -9 68 -12 115 -5 76 -3
88 15 110 l21 25 26 -26 c17 -16 29 -41 32 -67 3 -23 8 -42 12 -42 3 1 15 15
26 32 25 39 38 44 60 22 14 -15 17 -31 13 -93 -8 -125 -74 -243 -173 -311 -47
-32 -70 -37 -78 -17 -3 6 -6 2 -6 -10 -1 -12 -5 -25 -11 -28 -5 -3 -10 -25
-10 -47 0 -26 -6 -45 -16 -53 -11 -8 -25 -52 -39 -121 -53 -257 -159 -482
-276 -590 -19 -17 -65 -55 -103 -84 -54 -43 -67 -49 -62 -32 3 12 9 31 12 42
11 42 -5 18 -21 -29 -9 -27 -23 -55 -31 -61 -18 -16 -18 -6 2 59 8 29 13 55
10 58 -2 3 -17 -34 -31 -81 -39 -128 -46 -109 -10 28 9 32 14 61 12 63 -5 4
-39 -90 -62 -169 -9 -32 -21 -61 -27 -64 -12 -8 -10 1 43 225 22 90 38 165 36
168 -6 5 -90 -288 -101 -352 -10 -59 -19 -85 -37 -101 -23 -21 -23 -22 -3 63
20 86 27 130 20 123 -3 -4 -18 -58 -34 -121 -26 -104 -33 -118 -73 -161 -24
-25 -75 -81 -114 -123 -38 -42 -83 -84 -100 -92 -50 -26 -136 -42 -227 -43
-105 0 -109 3 -137 131 l-19 84 -1 -70 c0 -38 6 -87 13 -107 l13 -37 -44 -7
c-25 -4 -78 -4 -119 -2 -57 4 -78 9 -90 24 -9 10 -12 13 -8 5 5 -11 3 -13 -10
-8 -10 4 -21 7 -26 7 -8 0 -75 136 -75 151 0 4 -3 11 -7 15 -11 10 -2 -25 21
-85 11 -30 19 -56 17 -58 -9 -10 -55 41 -70 79 -29 68 -39 88 -43 84 -2 -2 6
-28 17 -57 l21 -54 -29 30 c-16 17 -39 56 -52 88 -24 60 -39 74 -19 18 21 -60
3 -41 -29 32 -23 50 -31 61 -26 37 l6 -35 -22 20 c-23 21 -56 75 -52 87 1 5
-2 7 -6 5 -12 -3 -111 93 -118 115 -3 10 -9 16 -13 14 -10 -6 -86 72 -96 99
-4 12 -9 15 -12 8 -7 -20 -50 26 -68 72 -11 30 -14 33 -12 12 3 -15 1 -27 -3
-27 -13 0 -50 85 -53 118 -1 17 -4 28 -6 26 -8 -8 -41 89 -34 100 4 8 2 8 -5
1 -9 -8 -7 -29 8 -80 24 -86 26 -102 6 -86 -8 7 -18 31 -21 54 -8 47 -60 206
-71 216 -4 3 -3 -7 1 -24 4 -16 9 -39 11 -50 2 -11 12 -51 23 -90 l20 -70 -24
28 c-13 15 -29 46 -35 70 -5 23 -22 85 -38 137 -15 52 -27 100 -27 107 0 7 -6
18 -14 25 -12 11 -13 10 -7 -6 6 -17 21 -80 31 -127 2 -9 8 -33 13 -53 6 -20
8 -36 6 -36 -3 0 0 -10 7 -21 8 -15 8 -19 0 -15 -18 12 -47 77 -60 136 -15 66
-62 220 -68 220 -3 0 -2 -14 1 -30 15 -77 17 -95 8 -80 -6 8 -13 35 -17 60 -6
39 -35 136 -53 180 -3 8 -7 58 -7 110 -1 63 -10 125 -25 185 -18 70 -24 118
-24 220 -1 179 7 246 68 532 8 37 20 110 27 160 10 81 14 91 25 75 13 -16 13
-16 14 1 0 10 -5 27 -10 38 -8 13 -7 31 2 62 7 23 13 51 14 62 3 41 25 105 34
100 6 -4 10 -12 10 -20 0 -8 5 -17 11 -21 8 -5 9 6 4 37 -13 73 -14 89 -4 95
5 3 16 -2 25 -11 22 -22 31 -10 11 13 -21 23 -21 33 0 77 10 21 24 35 35 35
20 0 25 20 6 20 -9 1 -7 5 3 13 9 7 18 17 20 22 4 10 8 10 49 0 l25 -7 -25 21
c-24 19 -24 21 -8 37 12 12 21 14 30 7 7 -5 22 -13 33 -17 17 -6 17 -4 -5 19
-22 23 -22 27 -8 41 14 14 18 13 43 -10 27 -25 101 -53 112 -42 5 5 -62 36
-77 36 -4 0 -15 9 -24 19 -16 18 -16 20 12 40 16 11 31 19 33 17 6 -5 109 -15
109 -11 0 2 -19 9 -42 16 -36 9 -39 12 -24 21 41 23 78 27 107 13 39 -20 46
-19 18 4 l-24 19 44 13 c39 11 45 11 56 -4 7 -9 16 -17 20 -17 4 0 2 7 -5 15
-16 20 -13 23 35 29 22 3 50 7 62 10 17 4 28 -3 45 -26 12 -18 24 -26 26 -19
2 6 -2 19 -9 27 -10 13 -10 17 2 25 8 5 21 8 29 6 13 -2 53 -53 63 -80 2 -7 7
-9 11 -5 4 3 -2 24 -14 47 -20 41 -20 41 0 41 22 0 42 -38 54 -104 9 -47 37
-107 47 -100 4 2 1 21 -6 42 -21 59 -53 167 -51 169 1 2 13 4 26 5 33 4 51
-34 48 -100 -2 -35 1 -52 9 -52 13 0 12 107 -1 145 -6 17 -3 21 18 23 24 2 26
-1 26 -42 0 -25 -4 -55 -9 -69 -5 -13 -5 -30 -1 -37 12 -20 23 28 23 102 0 88
17 54 19 -39 1 -47 -4 -93 -11 -112 -8 -17 -11 -34 -7 -38 3 -3 13 11 22 33
13 28 17 64 15 130 -2 87 -1 92 21 97 12 4 24 4 26 2 2 -2 6 -48 8 -102 3
-101 1 -113 -47 -204 -37 -72 -13 -62 29 12 16 27 48 63 71 79 30 22 51 50 73
95 26 56 29 72 24 124 -5 53 -3 62 14 71 31 17 33 13 26 -57 -8 -82 -19 -112
-64 -181 -43 -65 -37 -77 11 -22 50 59 81 147 78 224 -2 59 -1 63 26 76 15 8
51 29 80 47 l52 32 -39 -77 c-54 -107 -90 -183 -90 -188 0 -18 23 18 66 101
30 60 50 90 53 79 2 -10 -2 -20 -8 -22 -6 -2 -9 -8 -6 -13 3 -4 -3 -28 -13
-51 -37 -81 -36 -96 2 -44 20 27 36 54 37 60 6 89 55 188 108 219 l30 18 -3
-54 c-2 -36 -12 -69 -31 -101 -27 -47 -28 -77 0 -40 35 47 50 91 50 152 0 57
3 66 28 88 15 13 32 24 36 24 10 0 -27 -151 -41 -168 -6 -7 -8 -15 -5 -19 9
-8 43 72 57 132 12 53 45 115 62 115 17 0 0 -79 -28 -134 -13 -27 -19 -44 -11
-38 23 19 57 97 63 145 4 26 13 52 20 58 16 13 19 -2 3 -18 -6 -6 -10 -38 -10
-71 0 -34 -4 -75 -9 -93 -5 -18 -8 -34 -6 -36 8 -8 55 96 76 167 12 41 24 79
27 83 5 8 52 1 62 -9z m-729 -464 c0 -70 -25 -132 -71 -176 l-29 -28 1 64 c1
36 -2 82 -6 102 -4 21 -2 44 4 55 8 15 11 10 11 -27 2 -56 5 -73 19 -97 9 -14
11 -5 10 47 -1 96 -1 96 24 108 35 17 37 15 37 -48z m1481 -989 c77 -183 166
-319 289 -440 54 -52 59 -60 32 -46 -51 25 -156 135 -213 223 -64 96 -124 225
-150 317 -19 71 -24 106 -9 70 4 -11 27 -67 51 -124z"/>
<path d="M2588 3515 c-2 -2 -48 -7 -102 -10 -92 -6 -269 -44 -284 -61 -4 -4 1
-4 11 -1 46 17 222 38 322 39 22 1 135 -3 250 -8 116 -5 248 -8 295 -7 88 2
194 12 188 18 -2 2 -141 6 -309 10 -169 3 -320 10 -337 14 -17 5 -32 8 -34 6z"/>
<path d="M2475 3368 c-128 -10 -167 -16 -176 -25 -5 -5 19 -6 54 -2 139 15
557 0 896 -32 118 -11 131 -11 297 17 175 28 231 50 107 41 -38 -2 -113 -12
-168 -22 -94 -17 -110 -17 -310 -1 -349 27 -572 35 -700 24z"/>
<path d="M3945 3030 c-33 -11 -73 -20 -90 -20 -16 0 -41 -7 -55 -15 -14 -8
-39 -14 -57 -15 -18 0 -55 -13 -83 -30 -28 -16 -57 -30 -64 -30 -19 0 -107
-80 -100 -91 3 -6 11 -5 20 2 8 6 24 9 36 6 14 -4 31 2 48 17 19 15 38 22 61
20 18 -1 50 6 71 17 20 10 43 19 49 19 7 0 40 11 73 24 34 13 107 34 164 46
86 18 110 20 147 11 24 -6 68 -11 97 -11 51 1 52 1 28 15 -14 8 -44 17 -68 21
-31 5 -42 10 -38 20 9 23 -164 18 -239 -6z"/>
<path d="M2105 3022 c-83 -8 -185 -38 -185 -54 0 -4 12 -3 26 3 37 13 42 4 7
-14 -24 -13 -73 -67 -73 -81 0 -3 8 -3 18 1 15 6 15 4 -2 -15 -22 -25 -16 -28
22 -8 15 7 45 17 67 21 22 5 45 10 50 11 50 16 147 29 175 23 19 -4 64 -10
100 -13 36 -3 90 -13 120 -21 30 -8 56 -12 59 -10 2 3 -2 5 -9 5 -7 0 -11 2
-8 5 3 3 18 1 33 -5 15 -6 50 -13 78 -16 27 -2 58 -9 69 -15 15 -8 23 -8 32 2
8 9 7 11 -7 6 -14 -5 -16 -3 -8 12 8 14 4 23 -17 43 -15 14 -34 26 -42 26 -28
2 -75 14 -125 32 -80 29 -319 68 -380 62z"/>
<path d="M3775 2783 c-49 -10 -115 -40 -189 -85 -44 -26 -98 -54 -120 -60 -41
-12 -41 -12 -11 -16 59 -7 54 -49 -7 -58 -65 -11 -28 -26 66 -28 47 0 87 3 89
7 1 5 24 -1 51 -12 27 -12 79 -23 119 -26 l72 -4 -65 9 c-68 10 -200 56 -200
70 0 11 50 50 64 50 6 0 25 -16 41 -36 17 -20 42 -42 57 -50 59 -31 141 -5
172 54 14 27 34 42 56 42 17 0 40 -32 40 -56 0 -30 16 -32 23 -2 5 18 8 19 22
8 8 -7 19 -10 22 -6 26 25 -100 99 -197 116 -81 15 -177 -3 -268 -49 -34 -17
-66 -31 -72 -31 -20 0 -9 18 23 39 17 11 48 31 67 44 114 76 259 85 413 27 62
-23 82 -22 45 2 -51 33 -147 58 -221 57 -39 -1 -81 -3 -92 -6z"/>
<path d="M2357 2774 c-1 -1 -31 -5 -67 -9 -96 -10 -98 -10 -179 -48 -64 -30
-35 -32 56 -5 65 19 101 23 218 23 135 0 142 -1 195 -29 30 -15 78 -45 105
-66 28 -21 68 -41 90 -45 70 -12 105 -31 105 -57 0 -49 -87 -142 -190 -202
-90 -53 -182 -77 -325 -85 l-120 -7 78 -8 c91 -10 190 -2 250 20 23 8 58 20
77 27 75 24 217 136 262 206 30 48 37 106 16 132 -25 29 -114 48 -173 36 -34
-7 -98 13 -135 41 -56 43 -110 63 -188 71 -40 4 -74 6 -75 5z"/>
<path d="M2282 2650 c-101 -18 -158 -41 -146 -61 3 -6 -4 -21 -16 -34 l-21
-23 35 -4 c19 -2 32 0 29 5 -3 5 5 19 18 33 17 18 33 24 63 24 34 0 44 -5 57
-28 9 -16 33 -36 54 -46 66 -32 141 -6 172 59 9 19 24 35 32 34 25 0 155 -55
158 -66 2 -6 -12 -13 -31 -16 -19 -3 -65 -20 -102 -38 -64 -31 -75 -33 -173
-33 -87 0 -116 4 -160 22 -74 31 -78 19 -5 -15 53 -25 69 -28 159 -27 84 2
115 7 189 33 50 17 104 31 122 31 44 0 64 9 64 29 0 18 -51 51 -79 51 -10 0
-40 12 -67 26 -63 33 -169 64 -214 63 -19 -1 -81 -9 -138 -19z"/>
<path d="M3401 2457 c-2 -18 73 -119 113 -153 45 -40 101 -68 117 -59 5 4 31
0 57 -8 26 -9 65 -18 87 -21 37 -6 39 -5 21 9 -11 8 -29 15 -40 16 -12 0 -37
6 -56 14 -33 12 -31 13 36 8 39 -3 93 -2 120 3 47 8 44 8 -51 15 -103 7 -185
24 -185 38 0 4 23 2 52 -5 37 -10 55 -11 63 -3 6 6 6 9 0 8 -16 -4 -97 12
-135 27 l-35 14 25 -20 c34 -26 16 -25 -44 5 -27 13 -53 22 -57 19 -7 -4 -39
30 -71 76 -9 14 -17 21 -17 17z"/>
<path d="M3377 1681 c-16 -10 -42 -35 -59 -55 -16 -20 -50 -48 -74 -62 -58
-34 -95 -29 -178 25 -81 53 -105 61 -183 61 -78 0 -79 -8 -2 -15 69 -7 101
-20 168 -67 48 -33 61 -38 113 -38 75 0 116 18 181 78 28 27 67 57 85 66 17 9
32 19 32 21 0 13 -58 3 -83 -14z"/>
<path d="M2470 1387 c9 -7 40 -31 70 -53 30 -23 84 -69 119 -103 35 -34 67
-61 71 -61 5 0 10 -4 12 -8 7 -18 126 -76 192 -94 39 -11 121 -22 181 -25 141
-7 235 14 358 83 47 27 84 50 82 52 -2 2 -17 -4 -34 -12 -42 -22 -54 -20 -73
12 -19 30 -25 13 -7 -20 17 -31 -9 -42 -32 -15 -10 12 -18 17 -19 11 0 -5 5
-15 12 -22 14 -14 11 -18 -24 -27 -23 -6 -29 -2 -43 24 -20 40 -27 40 -13 0 8
-25 8 -33 -3 -40 -22 -14 -28 -11 -44 24 l-15 32 6 -32 c3 -19 1 -33 -4 -33
-6 0 -17 -3 -26 -6 -11 -4 -18 4 -25 28 l-9 33 -1 -32 c-1 -44 -31 -46 -31 -3
0 17 -4 30 -10 30 -5 0 -10 -14 -10 -31 0 -24 -3 -30 -16 -25 -9 3 -24 6 -35
6 -15 0 -19 7 -20 33 l-1 32 -10 -27 c-12 -34 -16 -34 -79 -7 -44 19 -48 24
-43 48 5 25 5 25 -10 7 -13 -16 -18 -17 -31 -6 -8 7 -15 19 -15 28 0 13 17 14
123 9 67 -3 135 -10 150 -16 17 -7 34 -7 45 -2 39 21 291 94 349 101 42 5 72
16 95 33 18 14 53 30 77 37 23 6 41 13 39 15 -4 4 -44 -5 -128 -30 -30 -9
-105 -20 -167 -25 -114 -10 -216 -36 -263 -70 -18 -13 -31 -15 -42 -9 -38 21
-212 58 -318 68 -191 18 -250 32 -326 76 -45 26 -82 35 -54 12z"/>
</g>
</svg>
